<svg width="64" height="64" viewBox="0 0 64 64" fill="none" xmlns="http://www.w3.org/2000/svg">
<path d="M26.9845 10.9183C28.7872 9.60864 29.6885 8.95378 30.6739 8.70074C31.544 8.47736 32.4565 8.47736 33.3267 8.70074C34.312 8.95378 35.2133 9.60864 37.016 10.9183L52.3461 22.0562C54.1488 23.3659 55.0499 24.0208 55.5952 24.8798C56.0765 25.6383 56.3584 26.5061 56.4149 27.4027C56.4787 28.4181 56.1344 29.4776 55.4459 31.5968L49.5904 49.6181C48.9019 51.7373 48.5576 52.7971 47.9091 53.5808C47.3365 54.2731 46.5981 54.8093 45.7629 55.14C44.8171 55.5147 43.7029 55.5147 41.4747 55.5147H22.5258C20.2976 55.5147 19.1835 55.5147 18.2376 55.14C17.4023 54.8093 16.6641 54.2731 16.0915 53.5808C15.443 52.7971 15.0987 51.7373 14.4101 49.6181L8.55462 31.5968C7.86606 29.4776 7.52176 28.4181 7.58566 27.4027C7.64206 26.5061 7.92403 25.6383 8.40539 24.8798C8.95054 24.0208 9.85187 23.3659 11.6545 22.0562L26.9845 10.9183Z" stroke="#47CEE7" stroke-width="5.33333" stroke-linejoin="round"/>
<g clip-path="url(#clip0_1698_3554)">
<path d="M42.6057 30.7887C42.4515 30.3297 42.0542 29.995 41.5758 29.9218L36.0078 29.071L33.5068 23.7432C33.2935 23.2891 32.8378 23 32.3371 23C31.836 23 31.3806 23.2891 31.1673 23.7432L28.666 29.0713L23.098 29.9221C22.6196 29.9953 22.2223 30.3297 22.0684 30.789C21.9145 31.2484 22.0307 31.7544 22.369 32.1015L26.4351 36.271L25.472 42.1697C25.3926 42.658 25.5997 43.1488 26.0036 43.4343C26.4072 43.7198 26.9401 43.7487 27.3742 43.5091L32.3374 40.7644L37.3006 43.5091C37.4965 43.6174 37.7121 43.6706 37.9267 43.6706C38.1879 43.6706 38.449 43.5912 38.6712 43.4343C39.0751 43.1492 39.2818 42.6583 39.2024 42.1697L38.2394 36.271L42.3058 32.1015C42.6435 31.7544 42.7596 31.2484 42.6057 30.7887Z" fill="#47CEE7"/>
</g>
<defs>
<clipPath id="clip0_1698_3554">
<rect width="21" height="21" fill="white" transform="translate(22 23)"/>
</clipPath>
</defs>
</svg>
