<svg width="64" height="64" viewBox="0 0 64 64" fill="none" xmlns="http://www.w3.org/2000/svg">
<path d="M54.7071 9.29297C54.6143 9.20009 54.504 9.12641 54.3827 9.07614C54.2614 9.02587 54.1314 9 54.0001 9H53.9969L38.0472 9.05029C37.9004 9.05075 37.7555 9.08351 37.6228 9.14625C37.4901 9.20899 37.3729 9.30018 37.2794 9.41333L18.9798 31.5654L16.1214 28.707C15.5583 28.1454 14.7954 27.83 14.0001 27.83C13.2047 27.83 12.4419 28.1454 11.8787 28.707L8.70734 31.8787C8.4287 32.1572 8.20766 32.4879 8.05686 32.8519C7.90605 33.2159 7.82843 33.606 7.82843 34C7.82843 34.394 7.90605 34.7841 8.05686 35.1481C8.20766 35.5121 8.4287 35.8428 8.70734 36.1213L13.929 41.3431C14.1163 41.5308 14.2214 41.7851 14.2214 42.0502C14.2214 42.3154 14.1163 42.5696 13.929 42.7573L6.44366 50.2427C5.8819 50.8057 5.56641 51.5686 5.56641 52.364C5.56641 53.1594 5.8819 53.9223 6.44366 54.4854L9.51495 57.5564C9.79351 57.835 10.1242 58.0559 10.4882 58.2067C10.8521 58.3575 11.2422 58.4351 11.6362 58.4351C12.0301 58.4351 12.4202 58.3575 12.7842 58.2067C13.1481 58.0559 13.4788 57.835 13.7574 57.5564L21.2427 50.071C21.3356 49.9782 21.4458 49.9045 21.5672 49.8542C21.6885 49.8039 21.8186 49.7781 21.9499 49.7781C22.0812 49.7781 22.2113 49.8039 22.3326 49.8542C22.4539 49.9045 22.5642 49.9782 22.657 50.071L27.8787 55.293C28.4418 55.8546 29.2047 56.17 30.0001 56.17C30.7954 56.17 31.5583 55.8546 32.1214 55.293L35.2928 52.1213C35.5714 51.8428 35.7925 51.5121 35.9433 51.1481C36.0941 50.7841 36.1717 50.394 36.1717 50C36.1717 49.606 36.0941 49.2159 35.9433 48.8519C35.7925 48.4879 35.5714 48.1572 35.2928 47.8787L32.4345 45.0204L54.5867 26.7207C54.6999 26.6272 54.791 26.5099 54.8538 26.3772C54.9165 26.2445 54.9493 26.0997 54.9498 25.9529L55.0001 10.0032C55.0005 9.87132 54.9748 9.74069 54.9245 9.6188C54.8743 9.49691 54.8004 9.38617 54.7071 9.29297ZM34.1717 50C34.172 50.1314 34.1463 50.2615 34.096 50.3829C34.0458 50.5042 33.9719 50.6144 33.8787 50.707L30.7073 53.8787C30.5196 54.0659 30.2652 54.1711 30.0001 54.1711C29.7349 54.1711 29.4805 54.0659 29.2928 53.8787L24.0711 48.6569C23.7926 48.3783 23.4619 48.1573 23.0979 48.0065C22.7339 47.8557 22.3438 47.7781 21.9499 47.7781C21.5559 47.7781 21.1658 47.8557 20.8019 48.0065C20.4379 48.1573 20.1072 48.3783 19.8287 48.6569L12.3433 56.1421C12.2505 56.235 12.1402 56.3086 12.0189 56.3589C11.8976 56.4092 11.7675 56.4351 11.6362 56.4351C11.5048 56.4351 11.3748 56.4092 11.2535 56.3589C11.1321 56.3086 11.0219 56.235 10.929 56.1421L7.85773 53.071C7.67047 52.8834 7.56531 52.6291 7.56531 52.364C7.56531 52.0988 7.67047 51.8445 7.85773 51.6569L15.3431 44.1716C15.9048 43.6086 16.2203 42.8457 16.2203 42.0503C16.2203 41.2549 15.9048 40.492 15.3431 39.929L10.1214 34.707C10.0285 34.6142 9.95484 34.504 9.90457 34.3827C9.85431 34.2613 9.82843 34.1313 9.82843 34C9.82843 33.8687 9.85431 33.7387 9.90457 33.6173C9.95484 33.496 10.0285 33.3858 10.1214 33.293L13.2928 30.1213C13.4806 29.9341 13.7349 29.829 14.0001 29.829C14.2652 29.829 14.5196 29.9341 14.7073 30.1213L33.8787 49.293C33.9719 49.3856 34.0458 49.4958 34.096 49.6171C34.1463 49.7385 34.172 49.8686 34.1717 50ZM52.9512 25.4775L31.0139 43.5997L26.4142 39L40.7071 24.707C40.8002 24.6142 40.874 24.504 40.9245 24.3826C40.9749 24.2613 41.0009 24.1311 41.001 23.9997C41.0011 23.8683 40.9753 23.7381 40.925 23.6167C40.8748 23.4952 40.8011 23.3849 40.7081 23.2919C40.6152 23.199 40.5048 23.1253 40.3834 23.075C40.262 23.0248 40.1318 22.999 40.0004 22.9991C39.8689 22.9992 39.7388 23.0252 39.6174 23.0756C39.4961 23.126 39.3858 23.1999 39.293 23.293L25.0001 37.5858L20.4005 32.9861L38.5225 11.0488L52.9969 11.0032L52.9512 25.4775Z" fill="#47CEE7" stroke="#47CEE7" stroke-width="1.984"/>
</svg>
