<svg width="64" height="64" viewBox="0 0 64 64" fill="none" xmlns="http://www.w3.org/2000/svg">
<path d="M30.1385 57.6397C30.7289 57.984 31.0241 58.1563 31.4406 58.2456C31.7641 58.3149 32.2356 58.3149 32.559 58.2456C32.9756 58.1563 33.2708 57.984 33.8612 57.6397C39.0558 54.6091 53.3332 45.0891 53.3332 32V17.6C53.3332 16.1122 53.3332 15.3683 53.0468 14.8013C52.7929 14.2986 52.3964 13.8974 51.8966 13.6376C51.3332 13.3445 50.5766 13.3356 49.0633 13.3177C41.139 13.224 36.5694 12.5696 31.9998 8C27.4302 12.5696 22.8606 13.224 14.9364 13.3177C13.4231 13.3356 12.6665 13.3445 12.1029 13.6376C11.6033 13.8974 11.2067 14.2986 10.9529 14.8013C10.6665 15.3683 10.6665 16.1122 10.6665 17.6V32C10.6665 45.0891 24.9437 54.6091 30.1385 57.6397Z" stroke="#47CEE7" stroke-width="5.33333" stroke-linecap="round" stroke-linejoin="round"/>
<path d="M39.5844 24.9463C38.6928 24.1034 37.6382 23.4517 36.4855 23.0312C35.3329 22.6108 34.1064 22.4305 32.8815 22.5014C28.0015 22.7614 23.9399 25.6514 23.9399 30.5514L23.94 32.4501C23.9334 33.6362 24.6107 35.9096 24.6107 35.9096C25.06 37.0073 26.5583 38.8463 26.5583 38.8463C27.3947 39.6874 28.389 40.3548 29.4842 40.8102C30.5795 41.2656 32.94 41.5 32.94 41.5C35.3269 41.5 37.3122 40.6477 39 38.9598C40.6878 37.272 40.4999 35.3875 40.4999 33.0006H32.9399" stroke="#47CEE7" stroke-width="3" stroke-linecap="round" stroke-linejoin="round"/>
</svg>
