<svg width="64" height="64" viewBox="0 0 64 64" fill="none" xmlns="http://www.w3.org/2000/svg">
<path d="M10.6665 50.6667V16.5333C10.6665 13.5464 10.6665 12.0529 11.2478 10.9121C11.7591 9.90851 12.575 9.09261 13.5786 8.58131C14.7194 8 16.2129 8 19.1998 8H44.7998C47.7868 8 49.2804 8 50.4212 8.58131C51.4246 9.09261 52.2406 9.90851 52.7518 10.9121C53.3332 12.0529 53.3332 13.5464 53.3332 16.5333V45.3333H15.9998C13.0543 45.3333 10.6665 47.7211 10.6665 50.6667ZM10.6665 50.6667C10.6665 53.6123 13.0543 56 15.9998 56H53.3332M23.9998 18.6667H39.9998M23.9998 29.3333H39.9998M50.6665 45.3333V56" stroke="#47CEE7" stroke-width="5.33333" stroke-linecap="round" stroke-linejoin="round"/>
</svg>
