<svg width="23" height="23" viewBox="0 0 23 23" fill="none" xmlns="http://www.w3.org/2000/svg">
<path d="M2.09025 8.88628C2.09025 7.08403 2.80623 5.3556 4.08068 4.08121C5.35514 2.80683 7.08367 2.09089 8.88602 2.09089C10.6883 2.09089 12.4169 2.80683 13.6913 4.08121C14.9658 5.3556 15.6818 7.08403 15.6818 8.88628C15.6818 10.6885 14.9658 12.417 13.6913 13.6913C12.4169 14.9657 10.6883 15.6817 8.88602 15.6817C7.08367 15.6817 5.35514 14.9657 4.08068 13.6913C2.80623 12.417 2.09025 10.6885 2.09025 8.88628ZM8.88602 2.00396e-08C7.46893 0.00012074 6.07243 0.339105 4.813 0.988671C3.55358 1.63824 2.46777 2.57955 1.64615 3.73407C0.824542 4.88859 0.290949 6.22285 0.0898976 7.62552C-0.111154 9.02819 0.0261648 10.4586 0.490398 11.7974C0.954632 13.1362 1.73232 14.3446 2.75857 15.3218C3.78483 16.2989 5.02989 17.0165 6.38989 17.4146C7.74989 17.8127 9.18539 17.8799 10.5766 17.6104C11.9678 17.341 13.2744 16.7428 14.3874 15.8657L21.2146 22.6935C21.4106 22.8896 21.6766 22.9999 21.9539 23C22.2312 23.0001 22.4973 22.89 22.6934 22.694C22.8896 22.498 22.9999 22.232 23 21.9547C23.0001 21.6774 22.89 21.4114 22.694 21.2152L15.8658 14.3874C16.8987 13.0771 17.5419 11.5024 17.7216 9.84362C17.9014 8.18484 17.6105 6.50896 16.8822 5.00778C16.154 3.5066 15.0178 2.24076 13.6036 1.35514C12.1895 0.469516 10.5546 -0.000112012 8.88602 2.00396e-08Z" fill="#F8F8F8"/>
</svg>
