<svg xmlns="http://www.w3.org/2000/svg" viewBox="0 0 1024 1024" width="1024" height="1024" shape-rendering="geometricPrecision">
<path fill="#cfd5d5" fill-rule="evenodd" d="M 405 801 L 409 800 L 419 803 L 411 797 L 412 793 Z M 485 764 L 502 765 L 503 763 L 501 761 L 491 761 Z M 438 757 L 442 760 L 456 760 L 445 753 L 440 754 Z M 528 748 L 527 745 L 512 746 L 513 749 L 515 747 Z M 461 746 L 472 747 L 472 744 L 466 743 Z M 598 735 L 604 743 L 603 736 L 600 737 Z M 530 727 L 488 728 L 510 729 Z M 378 728 L 378 730 L 388 732 L 382 726 Z M 645 725 L 639 726 L 639 730 L 644 730 L 646 728 Z M 333 721 L 333 724 L 364 738 L 356 727 L 341 720 Z M 672 717 L 663 719 L 656 727 L 661 726 L 672 719 Z M 635 723 L 629 715 L 622 715 L 616 719 L 603 721 L 599 724 L 598 728 L 625 719 L 633 726 Z M 658 704 L 652 704 L 644 709 L 655 708 Z M 450 702 L 442 707 L 437 717 L 439 719 L 449 713 Z M 690 692 L 681 699 L 681 703 L 686 700 Z M 333 685 L 352 694 L 345 691 L 342 687 Z M 286 682 L 288 684 L 287 688 L 301 703 L 293 687 Z M 305 685 L 306 688 L 311 685 L 316 687 L 313 701 L 316 703 L 323 698 L 329 698 L 332 701 L 330 707 L 343 715 L 343 709 L 335 704 L 329 694 L 319 694 L 319 683 L 312 680 Z M 569 679 L 570 688 L 576 694 L 575 697 L 571 697 L 571 701 L 579 700 L 582 697 L 582 692 L 574 688 Z M 729 672 L 727 671 L 715 685 L 716 687 L 730 676 Z M 616 670 L 626 679 L 630 678 L 622 668 Z M 513 666 L 511 671 L 508 671 L 512 680 Z M 158 664 L 162 678 L 179 666 L 169 670 Z M 373 658 L 370 658 L 370 661 L 367 663 L 366 672 L 369 670 Z M 495 656 L 493 658 L 490 656 L 483 663 L 474 678 L 476 677 L 477 680 L 486 671 Z M 743 652 L 736 660 L 738 664 L 745 655 Z M 349 647 L 343 651 L 341 658 L 344 662 L 350 662 L 354 659 L 352 650 L 351 652 L 348 651 Z M 348 653 L 350 657 L 346 658 L 345 655 Z M 256 644 L 260 657 L 270 669 L 274 668 Z M 728 652 L 732 653 L 740 646 L 744 646 L 733 642 L 733 646 Z M 383 638 L 380 638 L 375 648 L 381 649 Z M 355 635 L 362 645 L 370 637 L 365 636 L 362 638 Z M 439 633 L 434 632 L 427 639 L 428 646 L 431 645 Z M 413 632 L 410 634 L 411 675 L 414 677 L 414 669 L 417 668 L 417 662 L 414 665 L 412 664 L 410 649 L 414 640 L 415 642 Z M 337 631 L 331 630 L 325 637 L 327 639 L 331 638 Z M 408 626 L 412 630 L 415 627 Z M 685 624 L 678 630 L 677 635 L 679 635 L 683 627 L 683 630 L 687 627 Z M 710 627 L 708 623 L 706 626 L 695 625 L 695 628 L 700 631 L 708 630 Z M 743 620 L 738 623 L 736 630 Z M 781 617 L 771 628 L 771 631 L 777 627 Z M 569 617 L 557 619 L 564 621 Z M 258 613 L 251 621 L 253 624 L 259 617 Z M 765 608 L 756 622 L 758 626 L 767 612 Z M 714 601 L 710 607 L 717 610 L 719 605 Z M 457 601 L 456 605 L 461 608 L 464 601 Z M 287 594 L 280 602 L 281 606 L 288 605 L 282 602 Z M 773 593 L 769 595 L 763 605 L 767 604 Z M 756 592 L 748 594 L 740 612 L 744 607 L 750 609 Z M 230 592 L 232 608 L 241 624 L 242 619 L 237 613 L 238 607 L 233 602 Z M 347 594 L 350 596 L 360 595 L 357 591 L 350 591 Z M 367 590 L 368 594 L 374 594 L 373 591 Z M 308 583 L 297 588 L 296 590 L 299 589 L 297 592 L 299 590 L 301 591 L 299 593 L 302 592 Z M 752 579 L 759 583 L 762 577 Z M 784 572 L 781 572 L 776 588 Z M 601 553 L 618 550 L 606 550 Z M 657 550 L 668 550 L 670 547 L 667 549 L 659 547 Z M 708 545 L 704 544 L 703 551 L 707 550 Z M 315 543 L 314 545 L 319 554 L 320 549 L 316 545 L 317 543 Z M 448 542 L 444 548 L 451 553 L 454 547 L 452 542 Z M 215 542 L 217 564 L 220 570 L 218 545 Z M 421 544 L 428 554 L 432 551 L 428 540 Z M 644 538 L 642 542 L 640 539 L 643 550 L 645 548 L 648 549 Z M 618 538 L 617 542 L 618 540 L 622 550 L 626 550 L 625 545 Z M 324 538 L 325 543 L 331 549 L 332 547 L 329 542 Z M 287 538 L 282 538 L 276 544 L 279 546 L 288 543 Z M 792 543 L 791 535 L 789 534 L 782 541 L 774 538 L 776 542 L 786 541 Z M 718 536 L 720 538 L 728 535 L 731 537 L 731 541 L 724 544 L 724 547 L 739 547 L 736 546 L 737 544 L 735 547 L 732 546 L 734 545 L 732 542 L 735 538 L 733 538 L 733 532 Z M 496 531 L 497 535 L 501 537 L 506 532 Z M 155 527 L 155 553 L 158 568 L 157 559 L 161 556 L 162 551 L 155 539 Z M 223 526 L 218 532 L 219 536 L 228 534 Z M 246 525 L 243 530 L 255 572 L 252 560 L 255 558 L 258 561 L 255 550 L 251 553 L 248 550 L 249 547 L 245 537 Z M 250 556 L 252 552 L 256 555 L 253 558 Z M 660 521 L 642 525 L 636 524 L 634 528 L 639 525 L 640 527 L 637 532 L 639 529 L 641 531 L 643 525 L 653 526 Z M 758 519 L 759 535 L 761 529 L 764 541 L 758 544 L 764 544 L 763 520 L 759 524 Z M 337 519 L 316 526 L 318 528 L 316 531 L 310 532 L 315 533 L 316 531 L 319 532 L 332 527 L 332 522 L 337 524 Z M 278 520 L 281 527 L 284 528 L 285 524 L 280 519 Z M 734 516 L 713 517 L 719 517 L 723 520 Z M 522 512 L 520 514 L 511 514 L 513 516 L 512 519 L 518 517 Z M 241 511 L 239 515 L 243 525 L 242 521 L 244 518 Z M 378 512 L 386 526 L 389 520 L 384 513 L 385 509 Z M 440 506 L 440 518 L 437 526 L 439 525 L 447 531 L 449 526 L 442 520 L 444 508 Z M 204 504 L 200 506 L 201 513 L 204 511 L 209 512 Z M 876 502 L 872 503 L 875 504 L 877 513 L 876 534 L 875 520 L 871 517 L 865 517 L 860 507 L 868 502 L 816 508 L 817 529 L 815 547 L 823 549 L 825 555 L 821 560 L 811 564 L 801 602 L 788 626 L 781 645 L 749 686 L 736 695 L 712 719 L 684 735 L 676 742 L 624 760 L 575 768 L 579 768 L 582 771 L 576 773 L 573 777 L 569 777 L 572 778 L 566 782 L 582 788 L 582 790 L 555 791 L 545 782 L 544 777 L 554 772 L 570 773 L 573 769 L 561 772 L 535 772 L 513 777 L 437 770 L 442 774 L 462 776 L 461 778 L 450 777 L 442 779 L 436 775 L 436 772 L 433 770 L 435 768 L 431 767 L 432 769 L 428 771 L 428 775 L 424 776 L 417 786 L 422 785 L 428 789 L 430 795 L 434 792 L 444 795 L 434 797 L 430 801 L 427 795 L 422 794 L 422 804 L 445 808 L 472 807 L 475 811 L 473 818 L 474 834 L 491 835 L 488 834 L 489 832 L 497 835 L 493 836 L 504 838 L 534 833 L 536 812 L 540 808 L 579 808 L 592 806 L 597 803 L 605 805 L 611 830 L 626 829 L 665 818 L 663 805 L 661 804 L 655 808 L 650 803 L 655 798 L 661 800 L 661 795 L 664 791 L 702 774 L 712 763 L 718 763 L 723 766 L 739 784 L 762 771 L 797 741 L 790 731 L 786 732 L 787 727 L 782 722 L 781 716 L 792 707 L 799 696 L 806 690 L 810 683 L 810 674 L 817 671 L 814 670 L 814 666 L 820 662 L 822 651 L 826 648 L 828 642 L 834 643 L 837 646 L 832 652 L 831 659 L 823 666 L 822 674 L 826 676 L 826 674 L 829 674 L 831 676 L 830 679 L 843 686 L 873 623 L 857 616 L 847 615 L 846 606 L 850 600 L 854 571 L 857 566 L 853 560 L 853 548 L 860 540 L 862 543 L 881 538 Z M 487 819 L 488 832 L 486 829 Z M 639 815 L 642 817 L 640 821 L 643 824 L 636 823 L 636 818 Z M 486 810 L 483 812 L 476 811 L 483 807 Z M 604 806 L 608 805 L 612 811 Z M 564 806 L 575 806 Z M 515 801 L 515 812 Z M 642 799 L 637 804 L 633 801 L 639 798 Z M 530 791 L 539 796 L 572 792 L 577 796 L 577 803 L 575 803 L 575 800 L 570 802 L 562 801 L 565 805 L 563 807 L 543 807 L 530 796 Z M 434 787 L 438 783 L 443 783 L 448 790 L 442 791 Z M 622 783 L 641 779 L 652 788 L 639 794 L 630 795 L 632 793 L 629 788 L 623 786 Z M 466 779 L 475 778 L 479 783 L 470 785 Z M 540 775 L 546 785 L 542 788 L 533 789 L 537 781 L 529 779 Z M 751 772 L 752 774 L 743 781 L 737 780 L 740 778 L 737 776 L 743 773 L 744 769 Z M 611 768 L 608 770 L 596 769 Z M 636 764 L 645 763 L 646 765 L 641 767 Z M 685 759 L 687 766 L 679 775 L 683 781 L 678 782 L 675 780 L 665 784 L 663 782 L 665 771 L 668 768 L 682 768 Z M 744 753 L 737 758 L 735 757 L 741 752 Z M 733 745 L 734 748 L 728 751 L 727 748 Z M 787 701 L 780 710 L 780 706 Z M 759 695 L 762 699 L 756 702 L 753 698 Z M 804 679 L 806 681 L 801 687 L 800 684 Z M 849 662 L 850 664 L 845 672 L 843 665 Z M 861 631 L 865 637 L 859 644 L 856 638 L 851 636 Z M 847 631 L 849 634 L 845 636 L 845 642 L 843 643 L 840 637 Z M 813 622 L 813 630 L 805 640 L 802 641 L 799 638 L 789 639 L 787 637 L 791 628 L 798 621 L 804 629 Z M 822 600 L 823 604 L 817 618 L 814 610 L 807 609 L 811 602 L 811 606 Z M 848 587 L 849 593 L 846 598 L 845 594 Z M 821 534 L 824 540 L 831 545 L 829 552 L 827 549 L 819 546 Z M 863 521 L 864 525 L 861 528 L 858 524 Z M 826 511 L 831 512 L 835 517 L 834 529 L 825 516 Z M 447 486 L 433 491 L 436 495 L 443 494 L 446 491 L 441 489 Z M 512 461 L 514 466 L 519 466 L 516 462 Z M 450 459 L 448 461 L 453 468 L 456 468 L 453 460 Z M 592 452 L 595 455 L 606 455 L 611 458 L 625 458 L 613 454 L 608 455 L 598 450 Z M 474 448 L 478 454 L 483 453 L 477 447 Z M 753 446 L 749 451 L 747 447 L 748 453 L 756 453 Z M 619 447 L 627 449 L 631 446 L 636 447 L 637 449 L 634 451 L 642 453 L 640 449 L 630 444 Z M 569 442 L 568 445 L 582 457 L 583 452 L 579 447 Z M 473 440 L 484 440 L 487 437 L 477 435 Z M 685 429 L 683 431 L 684 438 L 690 437 L 692 439 Z M 714 425 L 712 427 L 718 428 L 720 431 L 718 442 L 721 443 L 723 441 L 723 432 L 720 427 Z M 345 420 L 344 424 L 349 432 L 349 436 L 352 442 L 356 444 L 355 436 Z M 706 415 L 701 414 L 693 422 L 693 425 L 695 426 L 701 419 L 707 422 Z M 789 412 L 788 415 L 794 424 Z M 552 414 L 555 419 L 560 419 L 557 412 Z M 368 412 L 365 417 L 363 416 L 365 424 L 364 418 L 366 416 L 371 420 L 369 419 Z M 733 410 L 728 414 L 731 418 L 735 417 Z M 611 400 L 612 403 L 609 407 L 607 404 L 613 432 L 610 413 L 614 412 Z M 769 397 L 767 396 L 763 399 L 767 401 Z M 544 395 L 542 400 L 547 401 Z M 588 389 L 592 389 L 594 392 L 591 396 L 596 394 L 595 388 Z M 501 386 L 506 392 L 514 395 L 514 390 L 505 385 Z M 240 380 L 237 381 L 236 379 L 231 390 L 232 393 L 225 413 L 224 426 L 227 423 L 228 412 L 234 405 L 233 400 L 244 394 L 242 390 L 240 392 L 236 390 L 242 384 Z M 748 377 L 736 393 L 738 396 L 740 395 L 744 387 L 749 383 L 751 384 L 748 395 L 748 409 L 751 405 L 750 397 L 753 395 L 753 378 Z M 503 376 L 505 379 L 513 377 L 506 374 Z M 686 366 L 692 369 L 690 374 L 692 374 L 694 368 Z M 248 361 L 241 369 L 241 372 L 245 375 L 248 374 L 246 368 L 253 364 Z M 527 359 L 531 358 L 534 362 L 547 353 L 535 359 L 535 353 Z M 429 352 L 428 361 L 423 372 L 426 372 L 424 378 L 416 378 L 411 381 L 425 383 Z M 361 351 L 360 360 L 363 361 L 364 353 Z M 505 342 L 506 345 L 503 344 L 505 348 L 514 356 L 516 354 L 512 353 L 515 352 L 514 348 L 510 344 L 508 346 Z M 735 337 L 733 339 L 734 343 L 745 355 L 745 349 Z M 294 337 L 290 340 L 287 338 L 288 334 L 279 345 L 283 341 L 288 343 L 286 346 Z M 614 331 L 615 359 L 618 359 L 617 332 Z M 710 329 L 706 334 L 706 338 L 709 337 Z M 634 329 L 631 338 L 633 338 L 636 332 L 639 332 L 642 336 L 642 341 L 637 347 L 639 353 L 631 355 L 639 358 L 651 358 L 650 355 L 641 355 L 639 353 L 645 345 L 646 335 L 643 330 Z M 500 328 L 501 342 L 502 338 L 506 338 Z M 283 321 L 278 326 L 280 330 L 273 336 L 273 339 L 278 338 L 283 329 Z M 594 314 L 592 317 L 590 316 L 590 322 L 592 323 L 591 327 L 596 331 L 596 337 L 592 337 L 592 339 L 595 341 L 593 347 L 595 349 L 594 353 L 599 375 L 595 354 L 599 346 L 597 347 L 594 344 L 597 342 Z M 423 313 L 413 318 L 408 332 Z M 679 308 L 688 317 L 688 314 Z M 385 308 L 384 311 L 388 314 L 393 328 L 393 321 L 388 311 L 389 308 Z M 521 300 L 518 303 L 523 307 L 522 327 L 524 328 L 526 326 L 525 301 Z M 542 300 L 538 300 L 536 308 L 541 305 Z M 621 297 L 622 299 L 620 299 L 623 302 L 619 303 L 624 305 L 624 301 L 627 300 Z M 399 294 L 398 298 L 404 308 L 405 303 Z M 647 289 L 657 295 L 649 288 Z M 408 288 L 410 297 L 415 300 Z M 590 287 L 594 289 L 590 293 L 600 295 L 598 292 L 602 289 L 598 290 Z M 677 285 L 685 293 L 695 296 Z M 360 281 L 358 287 L 358 307 L 360 304 Z M 499 283 L 558 286 L 579 290 L 580 286 L 573 284 L 578 286 L 573 289 L 557 286 L 559 281 L 524 278 L 526 280 L 539 279 L 542 281 L 535 284 L 524 282 Z M 611 273 L 625 279 L 627 277 L 622 273 Z M 386 271 L 386 276 L 394 275 L 388 270 Z M 639 267 L 638 270 L 655 278 L 653 274 Z M 556 267 L 542 269 L 539 272 L 553 271 Z M 486 255 L 491 264 L 496 265 L 494 267 L 496 269 L 498 266 L 491 259 L 493 254 L 500 256 L 520 253 L 536 254 L 542 260 L 540 252 L 535 250 L 519 250 L 507 253 L 492 250 Z M 486 236 L 486 238 L 493 238 L 496 241 L 498 238 L 509 237 Z M 308 230 L 308 235 L 288 250 L 273 267 L 265 267 L 254 254 L 247 260 L 254 257 L 260 260 L 261 264 L 252 264 L 251 271 L 238 272 L 241 263 L 228 276 L 230 277 L 226 280 L 226 284 L 223 287 L 216 287 L 225 278 L 216 285 L 209 299 L 214 303 L 215 301 L 219 307 L 219 304 L 224 305 L 227 311 L 223 314 L 221 313 L 198 349 L 199 359 L 190 359 L 189 363 L 181 367 L 177 363 L 184 356 L 163 349 L 159 357 L 160 361 L 149 385 L 149 398 L 147 399 L 147 401 L 156 401 L 166 408 L 166 415 L 158 434 L 156 451 L 158 444 L 159 461 L 157 461 L 155 453 L 154 463 L 148 467 L 139 467 L 136 477 L 128 482 L 124 479 L 123 473 L 132 467 L 122 468 L 118 471 L 124 505 L 128 515 L 127 524 L 150 524 L 146 511 L 154 508 L 157 510 L 162 521 L 166 538 L 166 525 L 180 533 L 190 528 L 198 527 L 199 536 L 191 541 L 185 552 L 183 551 L 183 540 L 179 539 L 180 554 L 182 555 L 176 558 L 174 563 L 174 586 L 172 586 L 172 582 L 167 576 L 159 573 L 161 596 L 169 611 L 149 625 L 144 631 L 157 660 L 156 654 L 159 652 L 162 655 L 175 651 L 177 654 L 185 655 L 186 651 L 189 648 L 191 649 L 188 652 L 188 657 L 180 659 L 183 662 L 181 663 L 186 662 L 184 661 L 187 659 L 190 664 L 198 665 L 197 670 L 191 667 L 196 679 L 222 710 L 226 712 L 221 707 L 221 701 L 223 700 L 232 713 L 228 720 L 227 714 L 225 723 L 217 730 L 215 736 L 231 748 L 239 750 L 253 759 L 261 767 L 273 751 L 271 747 L 273 743 L 279 741 L 302 758 L 326 771 L 342 776 L 333 771 L 342 769 L 349 775 L 348 777 L 352 778 L 349 779 L 363 786 L 365 779 L 381 753 L 347 744 L 343 740 L 338 739 L 336 741 L 335 737 L 316 727 L 315 729 L 313 728 L 314 726 L 300 715 L 295 715 L 286 708 L 278 694 L 269 687 L 254 666 L 247 663 L 246 658 L 226 630 L 224 614 L 213 596 L 205 559 L 203 532 L 200 523 L 198 524 L 199 516 L 192 518 L 190 516 L 192 510 L 188 510 L 187 513 L 186 511 L 176 512 L 172 508 L 172 502 L 175 499 L 173 497 L 174 493 L 178 495 L 176 496 L 178 498 L 192 490 L 189 489 L 177 494 L 167 489 L 167 483 L 174 478 L 172 477 L 175 471 L 174 465 L 177 462 L 184 461 L 182 463 L 183 472 L 181 473 L 180 470 L 179 475 L 187 470 L 189 463 L 191 465 L 190 468 L 203 460 L 210 421 L 229 370 L 224 370 L 226 367 L 223 365 L 223 362 L 226 360 L 228 362 L 229 359 L 231 361 L 229 358 L 237 355 L 249 338 L 283 304 L 311 281 L 325 273 L 325 255 L 322 248 L 322 238 L 325 235 Z M 324 754 L 335 757 L 332 759 L 333 761 L 329 768 L 321 762 Z M 340 753 L 350 752 L 356 759 L 353 760 Z M 352 746 L 357 747 L 358 751 L 354 752 Z M 301 741 L 305 740 L 313 747 L 310 748 Z M 293 736 L 295 742 L 294 749 Z M 260 732 L 256 741 L 248 740 L 243 734 L 241 734 L 241 738 L 238 736 L 234 738 L 231 744 L 225 742 L 222 738 L 225 733 L 236 734 L 232 729 L 233 727 L 242 732 L 240 731 L 241 729 L 247 728 L 250 725 Z M 214 684 L 218 684 L 220 689 Z M 184 625 L 198 632 L 203 631 L 206 635 L 205 640 L 201 642 L 196 637 L 190 639 L 189 645 Z M 180 622 L 182 625 L 179 634 L 176 636 L 175 646 L 172 644 L 170 647 L 162 647 L 159 652 L 153 645 L 154 636 L 151 633 L 151 629 L 155 628 L 167 634 Z M 205 605 L 214 608 L 220 617 L 211 619 L 210 622 Z M 192 592 L 196 594 L 195 608 L 190 601 L 193 600 L 190 598 Z M 188 580 L 192 579 L 193 584 L 190 584 Z M 130 486 L 136 488 L 134 489 L 134 502 L 126 494 L 126 489 Z M 158 470 L 160 477 L 157 482 L 159 487 L 164 489 L 165 496 L 161 498 L 156 496 L 155 500 L 154 494 L 151 494 L 149 491 L 153 488 L 154 480 L 149 478 L 153 471 Z M 139 469 L 143 469 L 146 479 L 143 482 L 139 480 Z M 200 445 L 202 449 L 200 454 L 198 449 Z M 204 436 L 205 438 L 201 445 L 201 439 Z M 190 422 L 190 430 L 187 434 L 186 431 Z M 212 403 L 212 411 L 207 418 L 207 429 L 203 420 Z M 207 390 L 207 398 L 203 401 L 202 397 Z M 152 380 L 155 384 L 153 388 L 151 386 Z M 182 375 L 191 376 L 193 384 L 196 380 L 200 385 L 197 382 L 199 377 L 208 378 L 198 400 L 180 394 L 179 388 L 185 380 Z M 177 364 L 178 368 L 175 373 L 172 372 L 169 383 L 173 392 L 180 397 L 171 404 L 163 402 L 163 387 L 167 385 L 169 376 L 167 373 L 174 369 Z M 205 341 L 209 343 L 206 349 L 203 344 Z M 221 326 L 224 335 L 232 341 L 228 340 L 218 354 L 218 343 L 209 341 L 218 334 L 218 328 Z M 234 289 L 233 299 L 228 303 L 225 298 Z M 228 288 L 230 291 L 224 295 L 223 293 Z M 265 287 L 264 291 L 256 298 L 257 292 Z M 303 274 L 306 281 L 305 286 L 301 286 L 298 283 Z M 302 263 L 303 265 L 294 283 L 291 286 L 288 285 L 287 265 L 293 262 Z M 304 239 L 313 242 L 311 248 L 317 245 L 319 239 L 322 241 L 321 247 L 313 254 L 315 259 L 313 261 L 310 259 L 308 261 L 306 258 L 310 256 L 303 248 L 296 245 L 300 245 Z M 388 186 L 395 186 L 399 193 L 398 198 L 391 196 L 391 199 L 400 205 L 402 202 L 405 204 L 405 207 L 407 206 L 415 215 L 419 215 L 426 222 L 429 221 L 437 231 L 482 226 L 523 227 L 555 231 L 558 228 L 566 229 L 577 225 L 590 235 L 585 236 L 581 232 L 571 230 L 567 234 L 600 238 L 630 248 L 638 254 L 648 257 L 652 261 L 675 271 L 675 266 L 678 272 L 701 287 L 702 285 L 708 286 L 711 289 L 708 292 L 733 316 L 762 353 L 777 368 L 800 400 L 800 411 L 810 431 L 816 452 L 871 454 L 863 451 L 865 445 L 866 449 L 866 443 L 852 403 L 849 400 L 849 403 L 843 407 L 834 403 L 841 412 L 838 415 L 832 409 L 833 398 L 846 400 L 849 391 L 875 377 L 871 364 L 854 332 L 848 327 L 829 334 L 824 339 L 818 338 L 813 334 L 805 318 L 797 312 L 798 319 L 795 322 L 790 321 L 784 314 L 780 314 L 770 307 L 769 304 L 780 295 L 784 299 L 785 304 L 791 308 L 786 298 L 780 294 L 777 295 L 775 288 L 792 266 L 772 250 L 757 243 L 750 236 L 735 227 L 728 236 L 726 234 L 719 243 L 712 245 L 692 231 L 668 220 L 667 215 L 672 200 L 672 193 L 624 177 L 616 176 L 609 196 L 604 200 L 575 197 L 567 194 L 550 195 L 545 191 L 546 189 L 544 190 L 543 183 L 538 177 L 534 179 L 532 184 L 529 177 L 523 178 L 515 169 L 525 166 L 536 166 L 540 174 L 543 175 L 543 178 L 542 166 L 479 162 L 482 168 L 483 182 L 483 167 L 484 173 L 486 172 L 485 175 L 494 177 L 490 181 L 496 189 L 488 193 L 483 191 L 484 184 L 484 188 L 479 192 L 466 191 L 455 193 L 451 196 L 438 195 L 417 200 L 411 194 L 406 182 L 402 187 L 396 184 Z M 842 447 L 844 445 L 851 452 L 843 453 Z M 834 445 L 837 447 L 835 453 L 831 451 Z M 802 393 L 797 396 L 796 392 L 798 390 Z M 801 360 L 804 359 L 808 362 L 809 366 L 816 368 L 812 376 L 802 366 Z M 839 354 L 842 354 L 844 357 L 842 364 L 838 357 Z M 801 344 L 810 347 L 811 352 L 809 353 L 804 348 L 801 348 Z M 767 342 L 769 341 L 775 347 L 773 348 Z M 843 334 L 841 340 L 835 346 L 833 343 L 834 339 L 839 334 Z M 781 330 L 786 331 L 789 329 L 797 336 L 786 340 L 783 338 Z M 752 326 L 754 324 L 762 326 L 755 328 Z M 804 322 L 813 331 L 811 333 L 814 335 L 808 340 L 808 344 L 799 331 Z M 760 300 L 763 300 L 764 305 L 773 311 L 776 317 L 775 320 L 764 310 L 759 303 Z M 714 292 L 723 287 L 728 287 L 735 291 L 735 295 L 729 299 L 726 297 L 723 300 Z M 742 282 L 752 289 L 747 289 Z M 661 257 L 668 258 L 672 262 L 668 263 Z M 739 256 L 744 256 L 743 259 L 740 258 L 744 260 L 744 265 L 748 270 L 753 272 L 751 273 L 752 280 L 735 268 L 739 265 L 737 259 Z M 686 250 L 691 249 L 695 253 L 691 254 Z M 645 237 L 647 241 L 651 240 L 659 245 L 655 245 L 653 256 L 646 257 L 641 246 L 635 247 Z M 686 235 L 689 234 L 695 242 L 693 243 Z M 632 226 L 636 222 L 645 231 L 635 229 Z M 497 220 L 501 219 L 503 221 L 500 224 Z M 574 218 L 577 216 L 584 219 L 578 222 Z M 555 214 L 556 220 L 554 221 L 552 216 Z M 540 219 L 543 214 L 551 217 L 549 221 Z M 543 210 L 551 209 L 553 211 L 547 213 Z M 593 206 L 598 211 L 596 215 L 591 211 Z M 442 197 L 448 199 L 447 208 L 440 201 Z M 576 199 L 566 208 L 559 206 L 559 197 L 570 195 Z M 476 194 L 473 199 L 470 198 L 470 209 L 454 214 L 449 212 L 461 205 L 465 205 L 465 200 L 473 192 Z M 614 195 L 614 187 L 619 180 L 622 183 L 627 182 L 629 184 L 636 182 L 648 193 L 656 189 L 661 191 L 655 195 L 656 197 L 652 205 L 646 199 L 633 200 L 632 197 L 627 197 L 623 194 Z M 494 176 L 497 175 L 503 183 L 500 184 Z M 484 168 L 487 163 L 508 165 L 496 166 L 500 167 L 486 171 Z"/>
<path fill="#b5b5b5" fill-rule="evenodd" d="M 653 801 L 654 806 L 663 804 L 662 800 L 655 799 Z M 531 792 L 533 797 L 543 806 L 563 806 L 558 802 L 562 797 L 575 799 L 576 801 L 576 796 L 572 793 L 538 797 Z M 439 787 L 445 790 L 443 785 Z M 545 784 L 539 781 L 538 785 L 533 788 L 542 787 Z M 420 781 L 413 790 L 412 797 L 421 804 L 421 794 L 426 792 L 413 791 Z M 650 788 L 641 780 L 623 783 L 623 785 L 629 784 L 633 789 L 631 794 Z M 467 779 L 470 779 L 471 783 L 477 783 L 475 779 Z M 545 777 L 546 782 L 554 789 L 579 789 L 563 786 L 566 784 L 563 783 L 561 777 L 568 775 L 567 773 L 554 773 Z M 749 772 L 745 771 L 742 779 L 738 780 L 743 780 L 750 775 Z M 334 771 L 340 773 L 343 776 L 341 777 L 351 778 L 348 778 L 343 771 Z M 683 769 L 668 769 L 667 778 L 669 782 L 664 782 L 668 783 L 675 779 L 681 781 L 678 778 L 678 773 Z M 436 768 L 441 777 L 461 777 L 447 774 L 442 775 Z M 324 755 L 322 762 L 329 766 L 326 760 L 323 759 L 325 758 Z M 341 753 L 354 759 L 347 753 Z M 223 736 L 225 741 L 229 743 L 235 737 L 235 735 L 230 734 Z M 259 733 L 251 727 L 243 730 L 240 734 L 233 729 L 241 737 L 240 734 L 244 733 L 251 740 L 256 740 Z M 222 701 L 222 707 L 227 713 L 223 711 L 229 715 L 229 709 Z M 157 654 L 159 656 L 156 659 L 158 663 L 169 669 L 182 664 L 171 659 L 164 662 L 161 660 L 160 655 Z M 836 645 L 830 645 L 829 642 L 823 653 L 823 663 L 816 666 L 815 670 L 818 671 L 816 672 L 819 671 L 821 673 L 822 665 L 828 661 Z M 861 633 L 857 634 L 859 643 L 864 637 Z M 152 629 L 152 633 L 155 636 L 154 645 L 157 647 L 163 642 L 165 637 Z M 185 626 L 189 641 L 189 638 L 192 636 L 198 636 L 203 639 L 203 635 L 193 633 L 187 627 L 186 629 Z M 179 624 L 173 636 L 171 636 L 175 641 L 174 638 L 178 634 L 181 625 Z M 813 623 L 810 630 L 806 632 L 800 630 L 798 622 L 790 631 L 788 637 L 800 635 L 804 638 L 803 640 L 811 632 Z M 206 605 L 210 621 L 211 617 L 219 617 L 215 610 L 208 609 Z M 822 601 L 815 607 L 816 619 Z M 192 593 L 191 598 L 194 600 L 195 607 L 195 594 Z M 821 535 L 820 546 L 827 548 L 829 551 L 829 545 L 823 542 Z M 827 512 L 829 513 L 827 517 L 834 524 L 834 528 L 834 517 L 831 513 Z M 147 511 L 151 523 L 149 525 L 154 528 L 156 527 L 156 539 L 163 550 L 162 556 L 158 559 L 159 568 L 157 568 L 157 561 L 159 572 L 171 579 L 174 591 L 173 562 L 179 553 L 178 539 L 182 538 L 184 540 L 185 551 L 189 542 L 198 535 L 197 527 L 187 531 L 184 535 L 170 533 L 164 521 L 168 532 L 168 537 L 165 539 L 163 537 L 161 521 L 156 510 Z M 189 509 L 193 510 L 192 517 L 200 516 L 199 524 L 200 521 L 201 526 L 200 515 L 202 513 L 200 513 L 199 506 L 197 509 Z M 869 502 L 863 506 L 863 510 L 866 515 L 876 519 L 876 524 L 874 504 Z M 131 487 L 127 489 L 127 494 L 134 501 L 133 489 L 135 488 Z M 155 472 L 151 476 L 155 480 L 154 488 L 151 491 L 156 491 L 157 494 L 163 496 L 163 489 L 158 490 L 155 487 L 155 482 L 159 475 L 158 472 Z M 143 470 L 138 469 L 140 466 L 134 467 L 126 471 L 124 477 L 126 480 L 133 479 L 138 469 L 141 481 L 144 476 Z M 182 461 L 177 463 L 176 467 L 181 469 Z M 845 445 L 843 452 L 850 452 Z M 856 389 L 848 393 L 848 400 L 846 402 L 833 399 L 833 407 L 836 413 L 840 412 L 833 403 L 835 401 L 843 406 L 846 405 L 849 399 L 851 401 L 848 398 L 848 394 Z M 169 385 L 166 389 L 165 399 L 168 400 L 163 401 L 171 402 L 179 397 L 172 392 Z M 185 377 L 186 380 L 180 388 L 181 393 L 198 399 L 206 379 L 201 381 L 204 382 L 203 387 L 198 392 L 195 392 L 195 384 L 191 383 L 191 377 Z M 801 362 L 810 375 L 812 373 L 811 368 L 806 367 Z M 233 359 L 227 365 L 227 368 L 230 370 L 231 363 L 233 364 L 235 361 L 233 363 Z M 782 330 L 783 335 L 787 338 L 792 337 L 794 334 L 797 337 L 789 330 L 786 332 Z M 220 327 L 219 335 L 210 341 L 219 341 L 218 353 L 221 346 L 228 339 L 231 341 L 223 336 Z M 804 323 L 800 331 L 808 343 L 809 339 L 814 334 L 816 335 L 814 332 L 812 335 L 813 330 L 810 329 L 811 327 L 808 329 Z M 761 301 L 765 309 L 775 319 L 772 311 L 764 307 Z M 211 299 L 221 311 L 220 314 L 221 312 L 223 313 L 225 311 L 224 308 L 219 308 L 219 305 L 218 307 Z M 778 295 L 775 302 L 770 306 L 780 313 L 784 313 L 790 320 L 796 320 L 798 312 L 788 303 L 792 308 L 787 310 L 781 295 Z M 716 294 L 724 299 L 726 296 L 733 295 L 733 291 L 724 288 Z M 307 272 L 299 281 L 301 285 L 308 285 L 305 288 L 309 284 L 305 282 L 304 284 L 302 277 Z M 737 269 L 755 283 L 748 271 Z M 298 264 L 293 263 L 287 267 L 287 270 L 294 278 L 291 281 L 291 285 L 301 267 Z M 251 261 L 248 262 L 246 260 L 248 257 L 245 260 L 246 262 L 241 262 L 231 271 L 241 262 L 243 263 L 240 269 L 247 269 Z M 645 238 L 645 241 L 639 245 L 643 247 L 646 256 L 649 257 L 646 258 L 648 259 L 653 245 L 658 245 L 651 241 L 646 242 Z M 307 234 L 301 241 L 303 241 L 302 244 L 305 249 L 311 252 L 320 246 L 320 241 L 318 241 L 317 246 L 311 249 L 310 244 L 313 241 L 310 242 L 303 239 Z M 583 231 L 576 227 L 571 227 L 564 231 L 558 229 L 554 232 L 563 233 L 559 232 L 567 232 L 569 229 Z M 550 217 L 544 216 L 540 221 L 541 219 L 549 220 Z M 575 196 L 571 195 L 562 198 L 562 205 L 568 205 L 573 199 L 570 196 Z M 474 193 L 468 197 L 465 206 L 461 206 L 451 213 L 469 208 L 469 198 L 473 197 Z M 375 191 L 390 199 L 390 195 L 398 197 L 395 187 L 387 186 L 380 190 L 379 188 L 378 192 Z M 615 187 L 616 193 L 624 191 L 633 198 L 648 198 L 652 203 L 654 195 L 660 191 L 656 190 L 648 194 L 636 183 L 630 184 L 627 190 L 624 191 L 619 181 Z M 483 169 L 484 182 L 482 182 L 482 180 L 486 186 L 484 191 L 494 189 L 493 187 L 495 187 L 487 176 L 484 175 Z M 517 169 L 523 177 L 529 176 L 532 179 L 532 183 L 532 179 L 536 175 L 540 176 L 544 183 L 546 181 L 545 189 L 546 184 L 550 194 L 557 193 L 551 193 L 547 190 L 544 174 L 543 179 L 542 175 L 538 175 L 537 172 L 540 173 L 536 167 Z"/>
<path fill="#0c66fd" fill-rule="evenodd" d="M 431 632 L 417 628 L 418 646 Z M 552 618 L 547 619 L 541 630 L 514 664 L 528 695 L 567 627 Z M 587 613 L 585 621 L 652 652 L 647 643 L 638 610 Z M 284 608 L 314 657 L 324 667 L 352 685 L 371 692 L 387 701 L 406 705 L 445 634 L 441 633 L 420 665 L 420 675 L 415 679 L 411 679 L 407 674 L 406 628 L 383 636 L 386 639 L 384 650 L 381 653 L 375 653 L 372 646 L 379 636 L 372 636 L 366 647 L 360 647 L 352 635 L 341 632 L 332 641 L 326 642 L 322 638 L 322 634 L 330 628 L 312 617 L 305 607 Z M 374 655 L 376 662 L 371 672 L 364 674 L 362 667 L 370 655 Z M 347 644 L 355 648 L 358 657 L 350 665 L 344 665 L 338 660 L 341 649 Z M 445 600 L 454 606 L 453 601 Z M 745 594 L 719 600 L 724 607 L 723 612 L 719 614 L 708 609 L 708 604 L 711 601 L 700 602 L 700 609 L 693 619 L 688 619 L 685 616 L 692 603 L 650 609 L 657 633 L 672 664 L 668 671 L 662 672 L 653 665 L 579 631 L 540 700 L 535 713 L 530 718 L 526 718 L 521 713 L 505 676 L 506 674 L 486 699 L 488 706 L 484 709 L 480 706 L 469 718 L 507 720 L 558 716 L 630 695 L 655 685 L 694 658 L 728 625 L 737 612 Z M 607 692 L 614 690 L 616 695 L 608 697 Z M 566 676 L 571 676 L 576 685 L 585 692 L 585 699 L 581 703 L 572 704 L 568 701 L 568 696 L 573 694 L 564 682 Z M 651 676 L 645 683 L 640 682 L 640 679 L 645 675 Z M 579 675 L 583 674 L 591 681 L 594 686 L 592 692 L 588 692 L 577 680 Z M 591 671 L 597 671 L 601 668 L 605 670 L 607 685 L 604 688 L 599 689 L 589 676 Z M 611 670 L 617 665 L 622 665 L 633 679 L 629 684 L 626 684 L 621 679 L 620 683 L 614 686 L 610 682 Z M 688 622 L 690 627 L 679 639 L 673 636 L 675 629 L 682 622 Z M 703 611 L 710 614 L 714 621 L 713 629 L 706 634 L 700 634 L 692 628 L 696 622 L 704 623 L 700 618 L 700 614 Z M 367 587 L 362 581 L 354 587 Z M 799 566 L 785 570 L 786 576 L 767 608 L 769 613 L 763 623 L 756 628 L 753 623 L 762 608 L 760 602 L 774 590 L 779 572 L 765 576 L 763 583 L 759 585 L 760 592 L 752 611 L 736 635 L 703 667 L 666 694 L 621 711 L 601 715 L 562 728 L 513 732 L 460 729 L 443 750 L 458 759 L 464 759 L 466 762 L 482 763 L 490 759 L 501 759 L 505 763 L 515 764 L 525 762 L 543 763 L 568 759 L 568 757 L 572 758 L 569 757 L 570 755 L 576 757 L 596 752 L 607 752 L 612 749 L 613 751 L 623 746 L 625 748 L 674 729 L 677 724 L 693 717 L 733 683 L 737 682 L 762 651 L 765 645 L 763 638 L 768 635 L 768 639 L 769 634 L 771 634 L 769 627 L 785 609 L 784 605 L 789 599 L 788 595 L 799 568 L 797 567 Z M 509 745 L 512 742 L 528 742 L 531 748 L 529 751 L 513 752 L 509 749 Z M 598 742 L 592 746 L 589 745 L 595 741 Z M 459 745 L 464 741 L 473 742 L 476 747 L 469 750 L 462 749 Z M 483 739 L 491 737 L 492 741 L 486 743 Z M 674 716 L 674 720 L 658 730 L 654 729 L 653 726 L 660 718 L 669 714 Z M 650 727 L 647 732 L 633 737 L 629 737 L 626 734 L 626 730 L 629 727 L 627 722 L 602 729 L 608 739 L 608 743 L 603 746 L 592 732 L 591 723 L 596 719 L 600 720 L 615 716 L 625 711 L 630 712 L 639 723 L 645 722 Z M 661 705 L 657 710 L 648 713 L 642 710 L 643 707 L 656 701 Z M 690 689 L 694 693 L 684 706 L 680 706 L 677 700 Z M 730 670 L 732 677 L 721 687 L 715 689 L 713 684 L 726 669 Z M 733 639 L 739 639 L 753 647 L 753 652 L 740 666 L 736 666 L 733 662 L 734 657 L 739 651 L 733 656 L 729 656 L 725 652 L 725 649 Z M 420 546 L 406 556 L 407 567 L 410 569 L 426 556 Z M 457 549 L 492 550 L 485 540 L 461 538 Z M 611 536 L 608 534 L 593 552 L 599 553 L 606 548 L 615 548 Z M 436 528 L 430 536 L 435 548 L 440 549 L 448 535 Z M 617 525 L 627 542 L 629 550 L 639 550 L 637 540 L 630 526 L 631 524 Z M 705 517 L 663 520 L 654 529 L 644 528 L 651 550 L 655 551 L 655 547 L 672 534 Z M 473 516 L 466 527 L 478 527 Z M 755 514 L 740 515 L 714 526 L 670 552 L 701 551 L 701 545 L 704 541 L 710 543 L 710 550 L 720 549 L 721 543 L 727 539 L 719 541 L 715 538 L 715 535 L 727 529 L 734 529 L 739 534 L 737 541 L 741 546 L 755 545 Z M 376 514 L 375 525 L 377 531 L 384 527 Z M 212 516 L 213 537 L 221 546 L 222 573 L 224 577 L 229 579 L 229 589 L 240 606 L 239 613 L 244 619 L 244 626 L 276 669 L 271 671 L 285 685 L 284 681 L 288 680 L 294 685 L 296 691 L 303 699 L 303 704 L 324 719 L 327 719 L 329 722 L 332 719 L 342 718 L 350 724 L 359 727 L 361 733 L 367 739 L 369 738 L 383 745 L 387 744 L 400 716 L 381 712 L 337 691 L 316 677 L 305 666 L 272 614 L 254 578 L 246 557 L 237 515 L 230 515 L 223 521 Z M 375 728 L 377 725 L 383 724 L 391 732 L 389 735 L 377 732 Z M 303 683 L 310 678 L 318 678 L 322 683 L 321 692 L 331 692 L 339 704 L 345 707 L 347 715 L 341 718 L 333 713 L 327 706 L 328 701 L 314 705 L 310 701 L 313 688 L 306 691 L 302 688 Z M 260 611 L 263 614 L 261 620 L 256 626 L 252 626 L 249 623 L 249 619 L 256 611 Z M 221 524 L 229 528 L 229 536 L 217 537 L 216 531 Z M 805 509 L 768 514 L 768 544 L 773 544 L 771 537 L 774 533 L 784 536 L 788 531 L 792 531 L 795 534 L 794 544 L 800 543 L 803 545 L 805 535 L 803 534 L 803 516 Z M 388 509 L 387 511 L 392 521 L 398 516 L 398 510 Z M 338 506 L 319 515 L 309 517 L 306 523 L 302 523 L 298 516 L 288 512 L 282 517 L 288 523 L 288 528 L 285 531 L 282 531 L 274 521 L 276 519 L 262 527 L 256 527 L 252 522 L 254 519 L 252 519 L 257 549 L 278 599 L 290 588 L 310 579 L 313 573 L 333 554 L 342 549 L 343 546 L 338 527 L 280 549 L 273 546 L 273 541 L 302 527 L 337 516 Z M 290 549 L 295 549 L 304 562 L 301 567 L 296 567 L 288 556 Z M 313 540 L 318 540 L 322 544 L 325 552 L 322 557 L 318 557 L 311 547 Z M 323 536 L 326 535 L 331 539 L 335 546 L 333 551 L 328 552 L 321 543 Z M 529 502 L 514 501 L 508 505 L 506 510 L 512 511 L 511 505 L 516 501 L 523 502 L 527 507 L 525 505 Z M 219 501 L 209 503 L 211 514 L 213 507 Z M 460 491 L 437 498 L 440 503 L 439 505 L 443 504 L 447 508 L 446 520 L 453 524 L 466 504 Z M 538 479 L 496 483 L 481 504 L 493 528 L 508 530 L 513 523 L 504 522 L 496 516 L 494 505 L 499 496 L 512 487 L 525 488 L 537 494 L 544 487 Z M 454 481 L 445 462 L 438 468 L 420 476 L 420 479 L 430 488 Z M 529 467 L 515 447 L 502 471 L 513 469 L 509 465 L 509 460 L 512 458 L 518 460 L 524 468 Z M 576 441 L 584 448 L 594 462 L 606 460 L 591 456 L 589 451 L 593 447 L 626 455 L 628 458 L 643 457 L 619 449 Z M 522 435 L 544 466 L 559 465 L 554 460 L 558 454 L 564 456 L 570 464 L 582 463 L 565 446 L 565 440 L 547 440 Z M 508 433 L 494 431 L 481 426 L 477 427 L 475 431 L 477 430 L 477 432 L 482 432 L 496 438 L 498 443 L 495 446 L 481 442 L 474 444 L 470 438 L 455 455 L 465 477 L 487 472 Z M 474 444 L 482 447 L 486 452 L 485 456 L 480 458 L 476 464 L 470 460 L 472 455 L 476 455 L 471 450 L 471 446 Z M 485 416 L 506 422 L 557 428 L 549 414 L 507 413 L 489 408 Z M 349 391 L 337 424 L 322 445 L 320 452 L 351 445 L 342 425 L 344 418 L 349 420 L 361 442 L 368 440 L 351 392 Z M 675 383 L 660 388 L 614 395 L 624 440 L 643 444 Z M 697 371 L 691 377 L 675 413 L 655 449 L 666 456 L 704 452 L 745 453 L 738 436 L 716 404 Z M 683 427 L 689 427 L 702 441 L 700 448 L 696 448 L 688 441 L 685 442 L 681 439 L 680 430 Z M 700 411 L 705 410 L 710 414 L 711 423 L 718 422 L 724 426 L 727 440 L 722 447 L 715 443 L 716 431 L 704 436 L 700 431 L 701 423 L 696 429 L 689 425 Z M 360 363 L 358 369 L 359 378 L 379 434 L 397 423 L 409 411 L 410 406 L 377 395 L 374 392 L 374 388 L 378 384 L 382 384 L 420 396 L 424 387 L 385 378 Z M 500 347 L 500 373 L 512 372 L 516 378 L 513 381 L 504 382 L 500 376 L 499 382 L 509 385 L 508 383 L 511 383 L 519 391 L 519 395 L 513 398 L 498 389 L 495 397 L 507 401 L 539 402 L 524 378 L 517 374 L 518 368 L 503 348 Z M 274 330 L 256 347 L 254 354 L 250 358 L 251 361 L 255 362 L 255 367 L 248 369 L 253 373 L 253 379 L 249 384 L 242 387 L 247 391 L 247 396 L 243 400 L 235 401 L 237 405 L 229 415 L 229 424 L 224 429 L 219 443 L 214 447 L 215 452 L 225 445 L 241 428 L 247 401 L 258 375 L 256 370 L 260 371 L 264 361 L 278 341 L 272 342 L 269 338 Z M 318 322 L 294 341 L 280 359 L 261 399 L 256 417 L 281 398 L 287 390 L 289 382 L 300 371 L 307 357 L 310 336 L 313 333 L 315 334 Z M 587 317 L 555 351 L 536 364 L 531 370 L 551 398 L 568 391 L 595 385 L 599 390 L 597 398 L 585 400 L 559 410 L 569 429 L 610 435 L 591 355 Z M 323 287 L 300 303 L 285 317 L 287 330 L 323 301 L 325 289 Z M 485 286 L 491 301 L 494 302 L 498 321 L 524 357 L 550 338 L 574 313 L 584 299 L 593 297 L 597 303 L 601 345 L 610 382 L 634 377 L 652 376 L 651 374 L 661 374 L 683 366 L 686 363 L 693 363 L 658 325 L 603 299 L 556 289 Z M 523 341 L 528 343 L 528 347 L 525 350 L 521 350 L 519 344 Z M 614 327 L 619 328 L 621 334 L 622 359 L 617 363 L 612 360 L 611 330 Z M 636 325 L 641 325 L 648 331 L 649 343 L 643 351 L 651 352 L 655 356 L 650 362 L 632 360 L 628 356 L 630 350 L 638 343 L 639 336 L 637 335 L 636 340 L 630 343 L 626 335 Z M 538 314 L 545 315 L 548 319 L 548 325 L 542 331 L 537 330 L 533 324 L 533 319 Z M 520 297 L 527 298 L 529 302 L 529 327 L 526 331 L 522 331 L 519 328 L 520 310 L 515 315 L 511 315 L 508 312 L 508 308 Z M 542 296 L 545 299 L 545 303 L 539 311 L 535 311 L 533 309 L 535 300 L 538 296 Z M 370 286 L 371 323 L 364 336 L 363 346 L 365 351 L 380 364 L 404 372 L 419 374 L 424 364 L 430 340 L 425 317 L 407 341 L 414 345 L 412 351 L 408 353 L 396 352 L 387 346 L 387 341 L 390 338 L 397 338 L 410 318 L 419 309 L 422 309 L 417 302 L 413 303 L 408 298 L 405 292 L 406 284 L 396 277 Z M 384 305 L 389 305 L 393 309 L 397 322 L 397 330 L 395 332 L 391 332 L 388 328 L 387 319 L 381 310 Z M 398 291 L 404 295 L 408 302 L 409 308 L 406 311 L 402 311 L 397 304 L 395 294 Z M 368 266 L 371 273 L 385 268 L 372 259 L 373 265 L 371 267 Z M 450 243 L 467 259 L 479 275 L 517 274 L 565 278 L 609 288 L 652 307 L 669 318 L 705 358 L 723 391 L 750 430 L 760 453 L 803 453 L 799 452 L 802 450 L 802 443 L 797 438 L 794 427 L 786 415 L 788 411 L 787 405 L 779 397 L 777 388 L 765 371 L 748 352 L 749 354 L 745 357 L 730 341 L 735 335 L 720 317 L 703 302 L 684 295 L 669 280 L 657 276 L 656 280 L 649 279 L 636 270 L 637 267 L 634 263 L 597 250 L 588 253 L 577 247 L 566 247 L 546 240 L 544 242 L 537 239 L 514 238 L 503 239 L 495 243 L 493 240 L 487 240 L 484 237 L 465 237 L 464 239 L 460 238 L 463 239 L 459 242 Z M 784 438 L 791 446 L 790 453 L 783 452 L 786 451 L 782 441 Z M 769 421 L 775 431 L 774 436 L 769 433 L 770 427 L 767 424 Z M 748 374 L 754 375 L 757 381 L 754 403 L 766 393 L 770 394 L 773 398 L 770 403 L 765 405 L 754 416 L 748 414 L 744 409 L 746 391 L 740 399 L 736 399 L 733 396 L 737 386 Z M 726 359 L 728 358 L 733 363 L 730 365 Z M 711 326 L 714 332 L 711 340 L 706 342 L 702 338 L 704 329 L 707 326 Z M 679 305 L 691 314 L 689 319 L 677 310 Z M 645 288 L 647 286 L 651 287 L 660 296 L 656 298 L 645 291 Z M 607 271 L 610 268 L 619 269 L 628 273 L 630 278 L 627 281 L 612 278 L 608 275 Z M 581 259 L 586 257 L 590 261 L 583 262 Z M 483 254 L 488 249 L 494 247 L 501 249 L 536 247 L 541 249 L 546 256 L 543 266 L 555 263 L 560 268 L 556 273 L 550 275 L 529 275 L 523 270 L 523 266 L 534 260 L 533 256 L 503 260 L 494 257 L 502 265 L 502 269 L 496 272 L 485 262 Z"/>
<path fill="#b0f7fb" fill-rule="evenodd" d="M 421 784 L 420 788 L 428 792 L 425 794 L 429 795 L 428 790 Z M 326 756 L 327 759 L 328 757 L 330 758 L 327 761 L 330 764 L 332 758 Z M 511 746 L 513 750 L 526 749 L 515 748 L 513 750 L 512 745 L 527 744 L 529 748 L 527 744 L 513 744 Z M 647 725 L 638 725 L 629 714 L 623 714 L 629 714 L 634 719 L 636 725 L 633 727 L 625 720 L 620 723 L 598 727 L 598 724 L 603 720 L 616 718 L 621 715 L 601 722 L 595 722 L 593 728 L 600 741 L 604 744 L 606 740 L 599 729 L 601 727 L 627 720 L 632 727 L 628 730 L 628 734 L 632 735 L 643 731 L 638 730 L 637 727 L 639 725 L 645 724 L 647 727 L 645 730 Z M 598 734 L 604 736 L 606 741 L 604 744 L 597 736 Z M 580 677 L 584 686 L 591 690 L 592 685 L 584 677 Z M 593 672 L 604 672 L 603 676 L 601 674 L 594 677 L 591 676 L 591 674 L 598 686 L 604 686 L 604 672 Z M 613 671 L 612 681 L 614 683 L 617 683 L 621 676 L 627 682 L 631 679 L 623 668 L 631 678 L 628 681 L 621 674 L 615 672 L 617 668 L 621 667 Z M 188 656 L 188 653 L 185 656 L 177 655 L 175 652 L 162 656 L 160 653 L 164 657 L 167 654 L 173 654 L 178 657 L 178 661 L 180 661 L 180 658 Z M 734 641 L 743 645 L 732 654 L 728 653 L 727 650 L 732 646 L 732 643 L 732 646 L 727 650 L 729 654 L 733 654 L 738 649 L 741 650 L 735 660 L 737 664 L 735 661 L 737 656 L 743 651 L 746 654 L 741 661 L 751 651 L 751 648 L 738 641 Z M 175 642 L 172 639 L 166 638 L 166 642 L 161 644 L 159 651 L 162 646 L 170 646 L 172 643 L 174 646 Z M 433 632 L 419 648 L 416 647 L 415 637 L 411 649 L 413 664 L 415 665 L 418 662 L 418 668 L 415 669 L 415 677 L 418 675 L 418 664 L 432 645 L 428 647 L 427 642 L 430 642 L 427 642 L 426 639 Z M 426 646 L 428 650 L 425 654 L 424 648 Z M 424 643 L 425 647 L 421 649 L 420 647 Z M 407 627 L 409 635 L 410 676 L 413 677 L 410 675 L 409 634 L 413 631 L 415 634 L 415 628 L 412 631 L 412 629 L 410 630 Z M 688 625 L 684 623 L 675 632 L 676 636 L 678 637 Z M 685 623 L 688 627 L 684 630 L 683 628 L 680 635 L 677 636 L 677 630 Z M 706 613 L 703 613 L 702 615 L 703 613 L 707 615 L 702 617 L 706 621 L 705 625 L 708 622 L 711 628 L 708 631 L 701 632 L 710 630 L 712 626 L 711 619 Z M 648 609 L 640 609 L 644 610 L 641 613 L 640 611 L 645 629 L 647 628 L 646 632 L 654 652 L 653 654 L 584 623 L 582 620 L 586 614 L 585 616 L 580 614 L 579 617 L 577 616 L 578 614 L 575 618 L 566 616 L 570 618 L 564 622 L 556 618 L 570 626 L 528 699 L 520 685 L 514 668 L 515 672 L 513 673 L 512 681 L 508 675 L 510 669 L 507 672 L 524 714 L 530 716 L 533 713 L 537 701 L 579 629 L 645 659 L 661 669 L 667 669 L 669 664 L 663 651 L 660 651 L 662 649 Z M 552 671 L 553 674 L 549 680 L 547 677 L 549 677 Z M 546 671 L 547 673 L 541 681 L 540 679 Z M 642 613 L 645 617 L 643 621 Z M 699 603 L 696 610 L 696 607 L 693 605 L 687 613 L 689 617 L 695 614 Z M 747 594 L 735 619 L 707 649 L 686 667 L 661 684 L 643 691 L 647 692 L 641 696 L 639 695 L 640 693 L 637 694 L 639 695 L 637 699 L 640 701 L 635 704 L 633 703 L 635 701 L 633 695 L 635 695 L 630 696 L 633 697 L 628 700 L 621 700 L 627 697 L 600 705 L 601 707 L 598 709 L 596 706 L 573 713 L 572 717 L 570 714 L 547 720 L 509 722 L 468 720 L 465 723 L 467 724 L 461 727 L 494 729 L 487 728 L 502 726 L 501 730 L 496 730 L 524 729 L 502 729 L 504 726 L 511 725 L 530 726 L 530 728 L 549 727 L 547 726 L 553 723 L 574 722 L 580 720 L 578 718 L 588 718 L 617 710 L 660 695 L 704 664 L 738 630 L 750 610 L 741 609 Z M 514 722 L 511 725 L 504 725 L 502 723 Z M 617 708 L 616 710 L 601 712 L 610 708 Z M 743 619 L 744 621 L 736 631 L 737 623 Z M 370 589 L 351 590 L 357 590 L 361 595 L 359 596 L 368 595 L 366 590 Z M 290 552 L 295 563 L 301 565 L 302 562 L 294 551 Z M 295 560 L 299 559 L 302 563 L 298 565 Z M 314 542 L 313 546 L 318 555 L 321 555 L 321 546 Z M 315 542 L 318 543 L 317 545 L 321 549 L 319 555 L 313 545 Z M 773 539 L 775 537 L 782 540 L 782 538 L 787 536 L 781 538 L 775 535 Z M 718 534 L 717 537 L 720 539 L 729 538 L 730 540 L 723 544 L 730 541 L 730 537 L 720 539 L 717 536 L 720 533 L 733 531 L 735 533 L 734 544 L 732 544 L 733 546 L 736 544 L 738 547 L 739 545 L 735 541 L 737 536 L 735 532 L 730 531 Z M 615 527 L 613 533 L 610 533 L 611 530 L 610 533 L 618 546 L 615 550 L 626 551 L 626 545 Z M 624 543 L 626 551 L 622 551 L 620 547 Z M 618 537 L 624 543 L 620 547 Z M 634 524 L 633 529 L 636 532 L 642 550 L 640 538 L 642 541 L 645 538 L 648 546 L 642 530 L 644 526 L 640 532 L 639 526 L 635 529 L 633 528 Z M 337 525 L 333 522 L 332 528 L 319 533 L 315 531 L 317 530 L 315 526 L 309 527 L 307 531 L 304 529 L 282 537 L 275 542 L 275 545 L 279 547 Z M 287 537 L 288 544 L 279 547 L 275 544 L 282 537 Z M 240 518 L 242 529 L 244 526 L 247 528 L 246 537 L 244 536 L 245 542 L 245 538 L 247 538 L 249 550 L 253 554 L 251 556 L 253 557 L 256 554 L 259 561 L 258 563 L 255 559 L 253 560 L 254 564 L 251 565 L 246 545 L 257 580 L 273 612 L 300 655 L 304 656 L 302 658 L 309 668 L 334 687 L 342 686 L 345 690 L 351 692 L 349 694 L 365 702 L 367 701 L 375 707 L 374 704 L 384 706 L 384 711 L 393 711 L 395 714 L 402 713 L 402 708 L 404 707 L 389 704 L 346 684 L 327 672 L 315 661 L 283 611 L 283 607 L 279 604 L 282 599 L 283 602 L 289 605 L 285 607 L 305 605 L 303 598 L 296 598 L 301 593 L 299 594 L 300 591 L 295 589 L 308 581 L 292 589 L 278 601 L 261 567 L 255 546 L 253 548 L 251 546 L 254 541 L 249 518 L 244 519 L 243 526 L 241 525 Z M 318 670 L 321 667 L 327 672 L 324 673 L 323 671 L 320 674 Z M 270 595 L 273 598 L 270 604 L 267 600 Z M 728 519 L 721 521 L 719 518 L 713 518 L 713 516 L 721 516 L 704 519 L 696 523 L 696 527 L 693 527 L 693 525 L 665 541 L 656 550 L 668 551 L 703 529 Z M 656 550 L 659 546 L 671 547 L 668 551 Z M 759 513 L 765 514 L 763 518 L 762 515 L 757 515 L 758 542 L 763 541 L 761 530 L 759 536 L 757 533 L 758 518 L 759 523 L 763 519 L 765 522 L 765 544 L 765 514 Z M 535 496 L 524 490 L 508 491 L 497 503 L 497 514 L 502 519 L 514 520 L 517 518 L 512 520 L 510 514 L 520 513 L 519 516 L 523 512 L 524 506 L 521 503 L 516 503 L 513 506 L 515 510 L 513 513 L 506 512 L 504 510 L 505 506 L 514 499 L 521 498 L 530 501 Z M 175 469 L 175 475 L 177 476 L 179 470 Z M 478 434 L 488 437 L 483 441 L 492 444 L 496 443 L 494 439 Z M 682 431 L 684 429 L 682 436 L 685 440 L 689 439 L 695 445 L 700 445 L 700 442 L 687 429 L 687 433 L 692 436 L 689 439 L 684 439 Z M 692 422 L 700 414 L 692 422 L 692 425 L 696 427 L 702 420 L 702 431 L 705 434 L 714 429 L 717 429 L 719 434 L 718 429 L 713 429 L 711 426 L 714 424 L 720 426 L 724 432 L 724 441 L 721 444 L 717 441 L 717 443 L 722 444 L 724 442 L 722 427 L 717 424 L 710 425 L 706 413 L 702 413 L 705 413 L 708 418 L 705 423 L 701 420 L 694 427 Z M 771 398 L 767 395 L 754 405 L 753 396 L 751 397 L 752 405 L 748 410 L 747 396 L 746 408 L 750 413 L 755 413 Z M 767 395 L 770 397 L 770 400 L 765 402 L 762 399 Z M 376 389 L 378 393 L 388 395 L 413 406 L 411 403 L 418 400 L 416 397 L 389 388 L 378 386 Z M 379 386 L 382 392 L 377 391 Z M 751 383 L 745 387 L 738 397 L 735 393 L 742 383 L 735 392 L 735 396 L 739 397 L 747 387 L 748 394 L 748 387 Z M 199 378 L 201 385 L 196 385 L 198 390 L 202 386 Z M 355 374 L 354 377 L 356 375 L 357 380 L 353 380 L 355 384 L 351 387 L 355 399 L 356 397 L 358 398 L 356 402 L 371 439 L 377 436 L 376 429 Z M 369 412 L 371 418 L 368 420 L 365 415 Z M 247 370 L 249 374 L 247 376 L 243 375 L 245 376 L 244 379 L 237 379 L 240 379 L 243 383 L 237 390 L 240 391 L 242 389 L 245 392 L 242 397 L 237 398 L 245 395 L 242 389 L 240 391 L 238 389 L 251 378 Z M 360 361 L 372 369 L 376 364 L 377 369 L 374 370 L 383 375 L 413 382 L 410 381 L 416 377 L 423 378 L 425 373 L 422 372 L 425 366 L 420 376 L 396 372 L 374 363 L 365 354 L 365 360 L 363 362 Z M 641 336 L 640 343 L 631 352 L 630 356 L 638 359 L 651 359 L 653 357 L 651 354 L 643 354 L 641 352 L 645 346 L 640 353 L 650 354 L 652 356 L 651 359 L 633 358 L 630 355 L 631 353 L 638 353 L 636 347 L 641 341 Z M 614 330 L 614 359 L 618 360 L 620 358 L 618 330 Z M 614 330 L 618 332 L 617 339 L 620 354 L 618 360 L 614 359 Z M 710 328 L 706 331 L 706 339 L 710 337 Z M 710 328 L 710 337 L 706 339 L 705 334 Z M 629 333 L 628 337 L 632 341 L 637 333 L 640 334 L 636 333 L 634 338 L 631 339 L 632 330 L 634 328 L 643 329 L 647 335 L 646 344 L 647 334 L 644 329 L 634 328 Z M 539 316 L 535 319 L 535 324 L 535 319 L 539 316 L 542 317 L 542 319 L 538 319 L 538 325 L 544 326 L 541 329 L 536 326 L 541 329 L 545 326 L 546 321 L 544 317 Z M 423 312 L 420 311 L 412 318 L 400 338 L 389 342 L 392 348 L 404 351 L 411 349 L 412 346 L 410 344 L 404 345 L 403 343 L 424 315 Z M 401 347 L 403 345 L 409 346 L 407 349 Z M 423 312 L 424 315 L 408 333 L 409 323 L 412 318 Z M 322 303 L 288 332 L 269 357 L 273 352 L 274 355 L 270 361 L 267 360 L 250 398 L 243 427 L 245 425 L 243 424 L 248 414 L 249 422 L 253 420 L 259 398 L 279 357 L 298 335 L 319 318 L 322 307 L 321 309 L 317 308 L 323 305 Z M 258 398 L 258 405 L 256 406 L 254 400 Z M 289 333 L 288 338 L 292 341 L 289 344 L 281 343 L 281 340 Z M 521 299 L 510 311 L 514 313 L 521 307 L 522 315 L 522 307 L 517 303 L 521 299 L 525 300 L 527 309 L 526 324 L 527 302 Z M 399 293 L 397 298 L 401 307 L 405 309 L 407 307 L 406 303 Z M 399 293 L 406 303 L 404 309 L 397 298 Z M 754 445 L 748 431 L 719 388 L 704 360 L 686 338 L 657 312 L 603 289 L 599 292 L 601 295 L 598 296 L 638 312 L 662 326 L 696 365 L 686 365 L 662 376 L 643 378 L 642 381 L 637 379 L 619 382 L 621 384 L 610 384 L 607 380 L 600 347 L 599 349 L 592 347 L 594 342 L 597 346 L 599 345 L 596 318 L 598 340 L 595 343 L 591 339 L 592 336 L 595 337 L 595 331 L 590 327 L 591 323 L 589 322 L 589 316 L 592 316 L 594 313 L 595 316 L 594 301 L 590 299 L 591 301 L 587 299 L 547 343 L 525 359 L 502 330 L 507 338 L 502 339 L 502 342 L 500 342 L 524 374 L 522 375 L 542 402 L 536 404 L 540 404 L 540 406 L 527 406 L 528 404 L 516 404 L 494 399 L 495 401 L 491 406 L 513 411 L 549 412 L 559 429 L 532 428 L 483 418 L 484 420 L 482 421 L 485 423 L 482 424 L 499 430 L 509 431 L 511 438 L 509 440 L 508 437 L 487 475 L 466 480 L 460 473 L 453 457 L 456 469 L 453 469 L 447 461 L 456 481 L 447 485 L 446 488 L 443 488 L 443 486 L 432 490 L 442 487 L 443 491 L 443 489 L 447 491 L 444 494 L 461 489 L 468 505 L 455 526 L 445 522 L 443 515 L 444 522 L 450 526 L 447 532 L 437 525 L 451 535 L 447 542 L 453 542 L 455 547 L 452 552 L 461 535 L 485 537 L 493 549 L 492 547 L 494 546 L 491 544 L 495 541 L 497 544 L 496 539 L 500 537 L 496 535 L 495 531 L 504 530 L 492 530 L 487 524 L 479 506 L 491 485 L 495 481 L 503 481 L 497 480 L 501 478 L 509 479 L 505 480 L 524 478 L 522 477 L 528 474 L 530 477 L 535 475 L 545 485 L 548 485 L 549 482 L 552 482 L 551 475 L 565 474 L 570 471 L 574 466 L 569 466 L 562 457 L 563 462 L 558 462 L 556 459 L 559 456 L 556 459 L 562 465 L 561 467 L 544 468 L 519 435 L 526 431 L 533 434 L 524 434 L 539 436 L 537 435 L 544 433 L 547 435 L 546 437 L 541 437 L 561 438 L 549 437 L 554 434 L 568 436 L 567 445 L 579 455 L 585 465 L 591 463 L 583 450 L 572 441 L 573 439 L 615 446 L 644 456 L 656 456 L 653 455 L 656 452 L 652 448 L 664 430 L 689 376 L 694 374 L 696 367 L 701 372 L 712 394 L 741 437 L 747 453 L 746 447 L 750 451 L 749 449 Z M 469 535 L 471 533 L 477 535 Z M 472 513 L 475 515 L 480 529 L 464 528 Z M 480 485 L 479 490 L 473 495 L 469 488 Z M 511 461 L 514 460 L 519 465 L 514 467 Z M 586 458 L 588 457 L 591 462 L 588 463 Z M 633 451 L 637 447 L 643 453 L 639 454 Z M 532 467 L 530 470 L 523 470 L 516 461 L 512 460 L 511 465 L 516 470 L 514 472 L 500 472 L 507 455 L 514 445 Z M 618 447 L 627 445 L 627 443 L 637 447 L 631 447 L 629 450 Z M 569 441 L 574 442 L 584 452 L 582 458 L 567 445 Z M 548 431 L 559 431 Z M 551 414 L 557 411 L 561 419 L 555 420 Z M 731 409 L 736 414 L 736 417 L 732 419 L 727 415 Z M 526 411 L 530 409 L 544 411 Z M 497 400 L 498 404 L 494 407 L 493 404 Z M 611 399 L 615 408 L 615 412 L 612 414 L 610 412 Z M 719 398 L 722 395 L 726 400 L 723 401 Z M 544 394 L 548 398 L 547 402 L 541 400 Z M 588 388 L 595 387 L 597 394 L 591 397 L 593 392 L 588 390 Z M 669 382 L 661 385 L 655 384 Z M 676 380 L 677 384 L 664 409 L 666 411 L 663 412 L 663 417 L 661 416 L 644 446 L 639 447 L 624 442 L 619 430 L 612 394 L 642 387 L 652 387 L 647 385 L 652 383 L 654 386 Z M 648 379 L 652 377 L 657 378 L 654 380 Z M 685 366 L 691 365 L 695 368 L 695 372 L 690 375 L 691 369 Z M 546 354 L 534 363 L 532 362 L 536 357 L 543 353 Z M 536 353 L 533 360 L 531 359 L 533 357 L 528 360 L 526 359 L 533 353 Z M 595 348 L 597 349 L 598 372 L 593 353 Z M 506 343 L 508 345 L 510 343 L 515 348 L 516 352 L 513 353 L 517 354 L 514 357 L 504 348 Z M 587 315 L 589 316 L 592 348 L 599 381 L 603 383 L 601 388 L 604 399 L 605 397 L 607 399 L 605 403 L 611 431 L 606 408 L 607 403 L 613 417 L 614 432 L 611 438 L 568 431 L 566 424 L 557 411 L 559 407 L 571 403 L 561 405 L 575 398 L 580 398 L 580 400 L 596 396 L 597 390 L 595 387 L 566 394 L 577 393 L 564 398 L 556 398 L 564 395 L 550 400 L 529 370 L 538 360 L 558 346 Z M 621 296 L 628 300 L 625 301 L 624 306 L 618 303 L 622 302 L 620 300 Z M 551 279 L 559 280 L 561 282 L 557 285 L 566 286 L 566 288 L 563 288 L 591 294 L 589 293 L 591 292 L 590 290 L 593 289 L 590 286 L 599 289 L 593 286 Z M 566 288 L 575 288 L 577 286 L 573 285 L 573 283 L 581 285 L 579 291 Z M 480 277 L 484 278 L 486 284 L 527 285 L 498 283 L 524 281 L 535 283 L 541 281 L 526 281 L 523 278 L 546 278 L 517 276 Z M 507 277 L 517 277 Z M 393 276 L 386 277 L 386 270 L 382 270 L 385 271 L 380 273 L 379 271 L 372 275 L 370 284 Z M 485 255 L 486 260 L 494 269 L 498 270 L 500 266 L 492 258 L 494 255 L 499 257 L 513 256 L 500 257 L 493 255 L 492 259 L 499 266 L 496 270 L 493 267 L 495 265 L 492 266 L 485 258 L 485 255 L 492 249 L 500 252 L 535 249 L 541 252 L 543 260 L 541 261 L 541 257 L 540 259 L 534 255 L 537 257 L 537 260 L 525 267 L 527 272 L 549 273 L 557 270 L 556 266 L 557 269 L 553 272 L 539 273 L 539 269 L 554 265 L 540 269 L 539 266 L 543 262 L 543 255 L 535 249 L 518 249 L 506 252 L 492 249 Z M 528 265 L 527 272 L 525 268 Z"/>
<path fill="#fc1b00" fill-rule="evenodd" d="M 923 464 L 852 464 L 850 469 L 838 469 L 832 463 L 748 463 L 751 467 L 769 469 L 772 472 L 744 478 L 738 475 L 726 475 L 722 478 L 694 478 L 692 475 L 700 471 L 716 472 L 722 470 L 725 472 L 734 470 L 731 464 L 733 463 L 672 465 L 653 471 L 650 474 L 624 472 L 620 473 L 613 480 L 603 476 L 598 476 L 591 480 L 586 478 L 561 492 L 523 533 L 515 544 L 515 549 L 519 550 L 523 544 L 527 544 L 548 523 L 550 518 L 571 499 L 574 502 L 552 522 L 557 530 L 546 542 L 545 547 L 547 549 L 550 549 L 568 530 L 572 529 L 578 536 L 568 550 L 575 550 L 612 514 L 618 514 L 618 505 L 629 501 L 666 501 L 671 503 L 668 506 L 648 508 L 637 514 L 642 514 L 646 512 L 660 512 L 662 510 L 730 505 L 731 501 L 727 499 L 711 500 L 705 498 L 708 494 L 689 494 L 691 489 L 715 488 L 717 491 L 715 495 L 735 494 L 736 488 L 743 488 L 743 494 L 751 496 L 748 499 L 749 502 L 767 500 L 772 504 L 801 501 L 804 499 L 829 498 L 832 494 L 835 497 L 842 497 L 864 492 L 849 487 L 840 487 L 836 482 L 841 476 L 855 476 L 858 472 L 870 470 L 872 467 L 880 472 L 886 472 Z M 590 510 L 588 516 L 583 519 L 582 517 Z M 761 495 L 764 490 L 773 492 L 770 495 Z M 620 490 L 622 487 L 627 489 L 625 491 Z M 656 484 L 655 487 L 645 487 L 646 484 Z M 798 484 L 800 481 L 808 481 L 811 485 L 803 489 Z M 805 473 L 807 471 L 814 471 L 816 474 L 810 477 Z M 161 147 L 161 150 L 166 152 L 174 150 L 188 156 L 208 159 L 211 163 L 210 166 L 216 169 L 218 177 L 215 178 L 207 169 L 178 170 L 205 180 L 211 179 L 216 184 L 220 183 L 225 187 L 230 186 L 236 191 L 253 196 L 259 200 L 271 201 L 275 198 L 284 206 L 290 205 L 306 217 L 320 223 L 327 223 L 335 229 L 348 233 L 374 248 L 380 249 L 384 255 L 393 260 L 406 264 L 418 278 L 418 284 L 431 300 L 430 302 L 437 315 L 440 328 L 441 352 L 435 387 L 430 398 L 430 404 L 435 410 L 420 428 L 404 442 L 402 439 L 405 436 L 405 431 L 385 444 L 379 445 L 379 447 L 366 456 L 361 457 L 359 454 L 338 458 L 335 463 L 309 470 L 305 468 L 301 455 L 303 450 L 307 449 L 329 416 L 336 395 L 337 383 L 348 354 L 341 365 L 341 372 L 326 398 L 324 395 L 329 387 L 334 367 L 339 362 L 339 348 L 345 348 L 349 344 L 357 323 L 356 304 L 353 293 L 359 278 L 356 251 L 351 248 L 347 249 L 343 244 L 339 244 L 336 248 L 336 255 L 341 273 L 336 285 L 337 295 L 331 308 L 325 335 L 323 358 L 316 367 L 313 377 L 307 381 L 293 400 L 279 414 L 254 431 L 244 444 L 239 444 L 228 456 L 214 464 L 207 472 L 202 472 L 188 481 L 209 476 L 214 481 L 211 488 L 197 498 L 236 483 L 240 487 L 240 491 L 235 499 L 240 499 L 253 488 L 264 492 L 271 487 L 273 491 L 283 493 L 282 497 L 274 505 L 274 508 L 277 507 L 277 509 L 283 502 L 294 499 L 298 504 L 302 502 L 308 507 L 317 497 L 326 492 L 341 488 L 343 491 L 340 494 L 351 486 L 359 483 L 368 484 L 384 473 L 400 467 L 411 460 L 413 455 L 426 442 L 431 448 L 411 468 L 423 464 L 444 451 L 454 432 L 459 427 L 463 428 L 474 414 L 480 397 L 488 385 L 490 373 L 489 358 L 491 354 L 489 352 L 488 325 L 485 321 L 481 304 L 476 300 L 473 292 L 464 282 L 465 274 L 461 268 L 452 263 L 444 252 L 436 246 L 433 240 L 424 233 L 417 231 L 404 220 L 405 232 L 400 232 L 389 221 L 387 209 L 374 202 L 371 204 L 362 202 L 342 187 L 342 190 L 339 192 L 331 183 L 313 182 L 301 175 L 265 168 L 273 170 L 276 174 L 288 177 L 293 181 L 289 184 L 274 178 L 272 175 L 258 173 L 248 164 L 242 162 L 232 162 L 231 160 L 228 162 L 225 158 L 208 153 L 183 151 L 174 148 L 171 150 Z M 305 488 L 308 484 L 313 485 L 310 489 Z M 225 473 L 228 470 L 231 471 L 228 475 Z M 279 472 L 276 475 L 270 473 L 275 469 Z M 257 469 L 258 471 L 251 476 L 250 473 Z M 364 465 L 360 469 L 348 474 L 345 472 L 350 468 L 361 464 Z M 402 442 L 392 451 L 387 452 L 393 445 L 400 441 Z M 275 432 L 275 435 L 258 451 L 249 456 L 247 455 L 255 445 L 273 431 Z M 303 428 L 303 433 L 290 446 L 287 440 Z M 436 427 L 437 429 L 432 433 L 431 431 Z M 297 411 L 299 413 L 291 424 L 287 435 L 284 436 L 277 433 L 275 430 L 291 414 Z M 450 406 L 453 411 L 444 421 L 441 418 L 442 412 L 446 406 Z M 455 366 L 458 368 L 458 377 L 455 387 L 449 395 L 447 392 L 448 380 L 452 372 L 451 369 Z M 478 354 L 483 358 L 481 374 L 471 386 L 470 378 L 474 357 Z M 463 334 L 465 346 L 458 353 L 456 351 L 455 339 L 457 337 L 461 339 Z M 340 333 L 339 343 L 334 347 L 333 340 Z M 344 304 L 348 308 L 347 322 L 341 328 L 337 321 L 339 309 Z M 463 294 L 470 303 L 473 312 L 471 316 L 467 312 Z M 433 283 L 436 282 L 448 296 L 453 312 L 452 316 L 433 288 Z M 421 260 L 423 259 L 433 270 L 430 271 Z M 430 254 L 442 267 L 440 273 L 429 260 Z M 394 242 L 406 242 L 411 249 L 404 251 Z M 383 232 L 387 235 L 386 239 L 382 237 Z M 369 225 L 373 224 L 375 228 L 373 229 Z M 335 214 L 343 212 L 350 216 L 353 221 L 348 223 L 338 218 Z M 336 199 L 341 199 L 347 206 L 343 207 Z M 295 197 L 302 194 L 305 197 L 316 200 L 322 206 L 316 209 L 301 205 Z M 226 175 L 236 170 L 254 181 L 268 185 L 271 189 L 266 191 L 257 185 L 246 184 L 242 181 L 228 178 Z M 225 163 L 230 163 L 233 167 L 229 168 Z"/>
<path fill="#fcf903" fill-rule="evenodd" d="M 806 555 L 774 553 L 683 563 L 644 560 L 622 560 L 609 563 L 582 562 L 577 558 L 577 553 L 585 548 L 590 539 L 574 553 L 569 553 L 566 548 L 575 537 L 570 531 L 550 551 L 546 551 L 542 546 L 555 529 L 550 524 L 527 546 L 524 546 L 521 551 L 516 552 L 513 549 L 513 544 L 522 531 L 535 518 L 523 527 L 498 560 L 458 559 L 445 581 L 444 588 L 452 591 L 474 590 L 479 596 L 477 603 L 483 598 L 485 593 L 489 599 L 485 605 L 479 608 L 475 606 L 452 641 L 420 699 L 404 733 L 386 763 L 383 777 L 379 777 L 351 822 L 346 834 L 351 831 L 377 795 L 394 775 L 398 773 L 403 777 L 399 794 L 410 779 L 410 774 L 416 767 L 416 760 L 418 758 L 422 761 L 436 743 L 434 740 L 440 739 L 448 727 L 482 689 L 490 676 L 523 636 L 536 616 L 536 612 L 541 608 L 553 608 L 551 605 L 562 593 L 566 595 L 559 608 L 571 605 L 602 604 L 604 602 L 634 599 L 660 599 L 692 594 L 694 592 L 721 590 L 732 587 L 719 586 L 716 583 L 718 576 L 747 571 Z M 376 785 L 382 784 L 384 787 L 381 790 Z M 414 756 L 416 759 L 408 766 L 406 760 Z M 421 742 L 421 747 L 415 753 L 413 751 L 414 748 Z M 430 728 L 432 733 L 429 737 L 425 732 Z M 452 697 L 451 707 L 453 711 L 443 720 L 438 721 L 435 717 L 439 708 Z M 503 642 L 503 646 L 491 667 L 479 680 L 474 690 L 458 704 L 458 699 L 470 683 L 477 668 L 491 651 Z M 474 642 L 476 646 L 465 660 L 463 653 Z M 456 637 L 460 640 L 457 643 L 453 641 Z M 484 632 L 485 635 L 477 643 L 477 639 Z M 646 589 L 643 595 L 637 595 L 635 592 L 642 587 Z M 546 587 L 540 597 L 534 595 L 542 587 Z M 493 586 L 494 589 L 487 594 L 488 588 Z M 458 583 L 460 590 L 453 591 L 451 588 Z M 525 581 L 526 586 L 520 591 L 519 585 Z M 421 491 L 407 485 L 398 484 L 350 502 L 349 509 L 357 509 L 356 512 L 352 513 L 351 520 L 348 523 L 352 528 L 350 533 L 354 534 L 350 538 L 355 551 L 347 558 L 344 566 L 340 564 L 341 562 L 338 563 L 325 575 L 329 574 L 331 577 L 323 585 L 317 586 L 315 599 L 320 611 L 328 616 L 326 613 L 331 611 L 335 615 L 340 616 L 343 622 L 348 620 L 347 623 L 366 626 L 380 626 L 392 623 L 387 618 L 399 612 L 402 617 L 395 622 L 409 611 L 415 612 L 421 619 L 419 613 L 425 615 L 428 621 L 440 621 L 443 613 L 435 605 L 431 606 L 428 604 L 424 591 L 434 585 L 436 576 L 446 560 L 445 558 L 439 566 L 431 567 L 430 565 L 411 581 L 389 568 L 386 564 L 386 559 L 395 552 L 392 549 L 394 547 L 399 549 L 421 531 L 428 521 L 430 508 Z M 354 623 L 356 621 L 360 622 L 359 625 Z M 386 605 L 390 601 L 394 602 L 391 606 Z M 380 576 L 384 579 L 382 584 L 378 582 Z M 343 576 L 347 575 L 349 578 L 345 580 Z M 361 564 L 364 564 L 369 575 L 392 595 L 392 600 L 384 604 L 382 609 L 379 606 L 373 608 L 349 608 L 348 606 L 339 607 L 337 605 L 339 602 L 335 598 L 335 593 L 349 578 L 361 569 L 358 567 Z M 406 503 L 411 508 L 413 521 L 410 524 L 406 522 L 395 532 L 398 533 L 402 530 L 405 534 L 398 540 L 390 540 L 389 543 L 386 539 L 390 535 L 377 544 L 372 543 L 365 526 L 365 513 L 367 509 L 364 506 L 369 502 L 371 505 L 379 499 L 396 499 Z M 372 494 L 372 498 L 368 499 L 366 497 Z M 618 472 L 616 470 L 604 471 L 603 473 L 609 476 Z"/>
<path fill="#edd6a3" fill-rule="evenodd" d="M 579 772 L 573 773 L 572 771 L 567 778 L 564 777 L 566 778 L 565 780 Z M 413 758 L 407 761 L 408 764 Z M 486 672 L 477 681 L 477 677 L 472 680 L 475 681 L 469 685 L 462 696 L 463 698 L 458 702 L 468 695 L 466 697 L 463 696 L 468 689 L 475 686 L 477 681 Z M 502 644 L 488 656 L 476 672 L 490 655 L 493 657 L 497 654 Z M 474 644 L 464 654 L 465 658 L 471 652 L 468 649 L 470 647 L 472 650 Z M 400 615 L 396 614 L 389 618 L 389 620 L 394 621 Z M 562 598 L 560 597 L 553 606 L 558 607 L 556 605 L 561 603 Z M 329 576 L 325 577 L 320 584 L 326 581 Z M 339 491 L 318 499 L 316 503 L 331 498 Z M 728 497 L 734 501 L 732 504 L 735 502 L 748 504 L 742 502 L 740 498 L 741 490 L 737 490 L 736 496 Z M 714 491 L 693 491 L 692 493 L 707 491 L 710 493 Z M 271 489 L 265 494 L 259 494 L 256 491 L 250 493 L 260 500 Z M 721 473 L 696 476 L 720 476 Z M 730 472 L 746 475 L 763 471 L 749 471 L 735 466 L 736 471 Z M 660 466 L 620 469 L 646 471 Z M 838 464 L 839 467 L 850 466 L 850 464 Z M 416 455 L 411 463 L 394 473 L 388 474 L 388 476 L 400 472 L 411 465 Z M 266 439 L 249 454 L 263 444 Z M 462 430 L 453 437 L 450 445 Z M 413 430 L 408 429 L 407 436 Z M 423 412 L 415 421 L 417 426 L 424 416 Z M 450 410 L 447 409 L 444 417 Z M 798 358 L 812 368 L 812 375 L 815 368 L 809 367 L 807 362 L 804 360 L 802 362 Z M 347 349 L 341 351 L 341 359 L 347 352 Z M 463 341 L 457 341 L 458 350 L 463 345 Z M 436 286 L 449 310 L 446 299 Z M 287 272 L 289 284 L 293 278 Z M 431 257 L 434 264 L 440 270 L 437 263 Z M 398 244 L 402 248 L 409 248 L 406 244 Z M 389 212 L 392 221 L 402 230 L 400 227 L 402 221 L 400 222 L 398 217 Z M 272 202 L 276 202 L 277 204 L 274 205 L 294 213 L 295 211 L 290 208 L 283 208 L 275 201 Z M 232 175 L 250 181 L 238 174 Z M 254 168 L 273 174 L 256 166 Z"/>
<path fill="#ffffff" fill-rule="evenodd" d="M 351 832 L 348 835 L 345 833 L 340 842 Z M 382 785 L 377 785 L 383 790 L 378 796 L 384 789 Z M 414 775 L 410 777 L 411 779 L 400 794 L 400 787 L 399 796 Z M 385 764 L 373 786 L 378 777 L 382 777 L 380 774 L 382 774 Z M 161 657 L 164 661 L 171 658 L 180 662 L 173 655 Z M 447 612 L 440 608 L 444 613 L 439 623 L 430 622 L 445 623 L 441 619 L 444 616 L 444 612 Z M 338 603 L 339 606 L 373 607 L 379 605 L 380 608 L 382 608 L 383 604 L 373 607 L 351 607 L 339 601 Z M 338 605 L 339 603 L 344 604 L 342 606 Z M 565 594 L 558 597 L 552 605 L 553 609 L 541 609 L 559 609 L 561 604 L 557 605 L 558 608 L 554 608 L 552 605 L 560 596 L 563 598 L 562 602 Z M 645 589 L 642 588 L 636 592 L 637 594 L 643 594 Z M 545 587 L 535 595 L 540 596 Z M 536 593 L 539 592 L 541 595 L 539 596 Z M 493 587 L 489 588 L 484 598 L 477 604 L 477 593 L 474 591 L 463 592 L 474 591 L 478 596 L 478 600 L 457 632 L 476 604 L 479 607 L 485 604 L 488 599 L 486 594 Z M 458 584 L 452 588 L 453 590 L 459 590 Z M 347 576 L 344 577 L 348 580 L 336 593 L 337 600 L 336 593 L 349 579 Z M 337 563 L 322 577 L 316 589 L 318 584 L 321 585 L 319 583 L 325 576 L 329 575 L 330 577 L 328 579 L 330 576 L 325 574 Z M 167 528 L 170 532 L 181 534 Z M 347 516 L 347 529 L 348 527 L 350 529 L 348 531 L 349 537 L 353 536 L 353 534 L 349 533 L 351 528 L 347 523 L 350 519 L 348 521 Z M 590 511 L 582 519 Z M 350 509 L 352 512 L 356 511 L 356 509 Z M 617 515 L 633 516 L 657 512 L 642 515 L 636 514 L 648 507 L 668 505 L 670 503 L 629 502 L 618 506 L 620 512 Z M 403 502 L 398 501 L 403 502 L 410 508 L 409 517 L 412 520 L 408 523 L 406 521 L 408 519 L 384 539 L 387 537 L 388 542 L 392 539 L 390 537 L 394 533 L 397 534 L 394 532 L 406 521 L 408 523 L 412 521 L 410 508 Z M 307 507 L 302 503 L 298 505 L 294 500 L 283 503 L 278 509 L 273 508 L 275 503 L 269 512 L 275 511 L 290 500 L 293 500 L 297 507 Z M 272 507 L 275 510 L 270 513 L 269 511 Z M 282 493 L 276 493 L 279 496 L 277 501 Z M 762 495 L 772 492 L 764 491 Z M 762 494 L 764 492 L 768 493 Z M 690 491 L 690 494 L 708 493 L 709 496 L 706 498 L 711 499 L 727 498 L 732 501 L 731 505 L 728 506 L 771 504 L 767 501 L 749 503 L 747 499 L 750 496 L 743 495 L 743 489 L 736 489 L 736 494 L 732 496 L 715 496 L 715 489 Z M 757 504 L 761 501 L 768 503 Z M 727 497 L 736 495 L 736 490 L 741 489 L 743 502 L 746 501 L 749 504 L 735 503 L 732 505 L 733 501 Z M 715 491 L 710 494 L 707 492 L 691 493 L 693 490 L 713 489 Z M 348 490 L 341 493 L 341 489 L 326 493 L 317 498 L 309 507 L 329 500 L 346 491 L 348 492 Z M 340 491 L 331 499 L 319 504 L 315 503 L 318 498 L 336 490 Z M 274 492 L 271 488 L 264 493 L 253 489 L 240 500 L 234 499 L 236 494 L 233 499 L 234 503 L 230 506 L 236 500 L 244 499 L 252 490 L 265 493 L 271 488 L 272 491 L 270 493 Z M 306 488 L 310 488 L 312 485 L 308 485 Z M 655 484 L 646 485 L 646 487 L 655 486 Z M 367 484 L 351 487 L 350 489 L 360 484 L 365 485 L 350 492 Z M 799 484 L 803 488 L 810 485 L 808 482 L 800 482 Z M 806 473 L 810 476 L 815 474 L 814 472 Z M 185 482 L 209 477 L 213 484 L 209 477 L 190 479 L 198 475 L 199 472 L 189 482 L 188 480 Z M 278 472 L 275 470 L 271 473 L 276 474 Z M 257 470 L 253 471 L 251 475 Z M 880 473 L 872 468 L 870 471 L 860 472 L 856 476 Z M 858 474 L 860 472 L 864 474 Z M 363 465 L 346 472 L 348 473 Z M 671 465 L 605 469 L 583 475 L 568 482 L 553 492 L 538 506 L 516 534 L 531 519 L 534 520 L 519 536 L 513 546 L 516 551 L 521 550 L 524 545 L 527 545 L 550 523 L 556 529 L 543 547 L 546 550 L 550 550 L 571 530 L 576 537 L 567 550 L 574 552 L 590 538 L 588 544 L 606 524 L 595 535 L 593 534 L 614 515 L 575 551 L 569 552 L 567 550 L 577 536 L 572 530 L 568 531 L 550 550 L 547 550 L 544 547 L 545 542 L 556 530 L 551 522 L 573 502 L 571 500 L 551 518 L 549 523 L 527 545 L 523 545 L 521 550 L 515 550 L 514 544 L 548 504 L 570 485 L 586 477 L 591 479 L 598 475 L 603 475 L 613 479 L 620 472 L 624 471 L 650 473 L 653 470 Z M 559 512 L 553 519 Z M 551 495 L 548 499 Z M 561 490 L 558 493 L 554 492 L 558 489 Z M 598 473 L 591 478 L 585 477 L 563 490 L 561 489 L 565 484 L 586 474 Z M 619 472 L 609 477 L 602 473 L 604 470 L 616 469 Z M 661 466 L 646 472 L 635 470 L 622 471 L 619 469 Z M 213 464 L 201 473 L 202 471 L 207 471 L 207 468 L 209 466 L 210 468 Z M 833 465 L 836 465 L 838 468 L 850 468 L 852 463 L 884 463 L 833 463 Z M 837 464 L 850 463 L 851 466 L 849 468 L 839 468 Z M 771 471 L 751 468 L 747 463 L 732 464 L 735 468 L 734 471 L 725 473 L 722 471 L 716 473 L 700 472 L 693 476 L 722 477 L 726 474 L 738 474 L 744 477 Z M 722 473 L 720 477 L 698 477 L 696 475 Z M 729 472 L 735 471 L 735 465 L 749 470 L 760 469 L 764 471 L 746 476 Z M 379 446 L 356 453 L 363 456 Z M 371 451 L 363 456 L 360 455 L 363 451 Z M 302 459 L 302 455 L 311 445 L 307 450 L 304 450 L 302 455 L 305 467 L 308 469 L 335 462 L 338 457 L 341 457 L 306 463 Z M 322 463 L 326 460 L 335 461 L 332 463 L 328 462 L 328 464 Z M 401 442 L 389 449 L 388 452 Z M 274 432 L 255 446 L 248 455 L 269 441 Z M 259 448 L 252 453 L 250 452 L 256 446 Z M 264 440 L 265 443 L 259 448 L 257 446 Z M 303 429 L 288 440 L 290 445 L 302 433 Z M 295 434 L 295 439 L 292 440 L 291 438 Z M 300 431 L 301 433 L 297 437 L 295 434 Z M 262 425 L 248 434 L 228 455 L 220 460 L 228 455 L 239 443 L 244 443 L 252 432 Z M 250 434 L 243 442 L 243 439 Z M 472 418 L 463 429 L 459 428 L 455 432 L 445 451 L 423 465 L 413 466 L 415 461 L 430 448 L 426 443 L 414 455 L 411 461 L 376 479 L 380 480 L 378 479 L 379 477 L 383 479 L 381 477 L 385 474 L 394 472 L 413 460 L 414 462 L 411 466 L 400 473 L 387 477 L 410 470 L 413 466 L 414 468 L 435 458 L 457 440 Z M 416 454 L 417 458 L 414 461 L 413 459 Z M 426 445 L 428 449 L 422 452 L 421 450 Z M 462 429 L 463 431 L 452 444 L 450 442 L 452 437 Z M 298 413 L 291 415 L 276 431 L 286 435 L 290 424 Z M 450 407 L 446 407 L 443 412 L 442 418 L 444 420 L 452 411 Z M 450 409 L 449 414 L 444 418 L 446 409 Z M 429 399 L 419 415 L 393 438 L 405 430 L 406 436 L 403 439 L 404 441 L 419 428 L 434 410 L 429 404 Z M 413 429 L 414 432 L 407 437 L 406 430 L 408 428 Z M 416 423 L 412 428 L 407 427 L 413 422 Z M 423 411 L 425 416 L 417 427 L 414 421 Z M 488 386 L 481 397 L 478 407 Z M 455 367 L 452 369 L 453 372 L 449 380 L 449 394 L 454 387 L 457 377 L 457 368 Z M 454 368 L 454 374 Z M 492 357 L 490 358 L 490 371 L 492 370 Z M 478 355 L 475 357 L 471 385 L 480 374 L 482 358 Z M 478 357 L 479 365 L 476 360 Z M 351 341 L 345 349 L 340 348 L 340 362 L 335 367 L 330 387 L 325 395 L 326 397 L 340 372 L 340 365 L 349 353 Z M 338 364 L 339 372 L 335 375 Z M 347 348 L 348 352 L 341 360 L 339 358 L 340 351 Z M 324 336 L 320 353 L 309 376 L 305 380 L 312 377 L 315 367 L 322 358 Z M 313 369 L 314 372 L 310 377 L 309 375 Z M 340 334 L 334 340 L 334 346 L 337 345 Z M 337 337 L 338 342 L 336 345 L 335 340 Z M 462 333 L 462 339 L 456 339 L 458 352 L 464 346 Z M 463 340 L 464 345 L 458 351 L 456 341 L 458 339 L 460 341 Z M 344 305 L 340 309 L 338 321 L 341 327 L 346 322 L 347 308 Z M 342 316 L 344 319 L 343 323 L 340 324 L 339 321 Z M 463 295 L 468 312 L 471 315 L 469 303 Z M 433 284 L 452 315 L 447 296 L 436 283 Z M 436 285 L 447 299 L 450 307 L 449 311 L 435 288 Z M 359 266 L 360 278 L 354 292 L 358 322 L 361 304 Z M 360 280 L 361 304 L 359 314 L 355 290 Z M 454 260 L 465 272 L 465 282 L 481 303 L 471 281 L 475 289 L 474 291 L 466 282 L 467 275 Z M 422 260 L 432 270 Z M 743 256 L 743 262 L 739 262 L 741 261 L 739 262 L 742 266 L 739 268 L 745 270 L 741 264 L 743 263 Z M 385 256 L 413 277 L 430 303 L 428 297 L 417 284 L 417 278 L 412 271 L 401 262 L 393 261 Z M 406 270 L 409 269 L 415 277 Z M 398 264 L 400 262 L 407 269 L 405 270 Z M 336 256 L 339 272 L 336 272 L 335 267 L 335 286 L 331 307 L 336 295 L 335 285 L 337 277 L 340 273 Z M 430 255 L 430 260 L 440 272 L 441 267 Z M 431 256 L 438 263 L 440 271 L 429 258 Z M 395 242 L 404 250 L 410 249 L 406 243 Z M 397 244 L 406 243 L 410 248 L 405 250 Z M 335 240 L 335 247 L 339 243 L 343 243 L 347 248 L 350 247 L 346 246 L 344 242 L 341 243 L 341 241 Z M 336 241 L 339 240 L 340 242 L 338 244 Z M 383 233 L 383 237 L 386 238 L 386 235 Z M 336 214 L 348 222 L 352 221 L 350 217 L 343 213 Z M 345 217 L 349 219 L 346 220 Z M 388 209 L 390 221 L 400 231 L 404 232 L 404 219 Z M 389 211 L 398 216 L 400 221 L 403 221 L 401 225 L 402 231 L 391 221 Z M 337 199 L 340 204 L 346 206 L 341 200 Z M 338 201 L 340 200 L 345 205 L 343 206 Z M 264 202 L 269 204 L 266 202 L 275 200 L 283 207 L 274 206 L 293 213 L 282 208 L 290 207 L 302 214 L 301 216 L 297 215 L 319 223 L 306 218 L 290 206 L 284 207 L 275 199 L 271 202 Z M 296 197 L 301 204 L 316 208 L 321 206 L 316 201 L 305 198 L 302 195 Z M 309 204 L 315 202 L 315 204 L 321 205 L 316 207 Z M 345 188 L 362 201 L 368 203 L 376 202 L 370 199 L 372 201 L 370 203 L 366 202 L 356 195 L 358 194 Z M 626 183 L 623 186 L 622 184 L 624 190 L 628 186 Z M 332 183 L 339 191 L 343 187 Z M 334 186 L 337 185 L 340 189 L 338 190 Z M 197 178 L 224 187 L 220 184 L 216 185 L 211 180 L 205 181 Z M 227 175 L 246 183 L 257 184 L 266 190 L 270 189 L 268 186 L 254 182 L 236 171 L 229 176 Z M 259 185 L 267 187 L 265 189 Z M 231 175 L 238 173 L 251 181 L 246 182 Z M 167 167 L 186 173 L 178 171 L 178 168 L 183 169 L 179 169 L 177 166 L 174 168 Z M 226 163 L 227 166 L 232 167 Z M 243 162 L 248 163 L 254 170 L 263 174 L 272 174 L 278 179 L 281 179 L 274 176 L 285 177 L 290 181 L 283 180 L 289 183 L 292 181 L 288 178 L 276 175 L 273 171 L 269 170 L 276 169 L 301 174 L 309 180 L 328 182 L 318 178 L 318 180 L 313 181 L 306 177 L 308 176 L 294 172 L 279 171 Z M 250 166 L 252 164 L 272 171 L 274 174 L 259 172 Z M 217 177 L 215 169 L 209 166 L 208 160 L 210 165 L 206 169 L 187 169 L 207 168 Z M 152 145 L 152 147 L 162 151 L 160 147 L 164 146 L 154 147 L 154 145 L 157 145 Z M 126 143 L 140 146 L 140 144 L 148 144 Z"/>
<path fill="#040303" fill-rule="evenodd" d="M 337 593 L 338 600 L 354 606 L 373 606 L 382 604 L 390 600 L 390 595 L 374 582 L 365 571 L 360 571 L 350 579 Z M 345 594 L 349 589 L 362 579 L 380 597 L 378 599 L 364 601 L 350 598 Z M 406 505 L 397 501 L 383 500 L 379 501 L 370 507 L 367 513 L 367 525 L 372 541 L 377 542 L 383 539 L 398 528 L 408 518 L 409 508 Z M 402 511 L 402 514 L 387 528 L 385 528 L 379 533 L 376 532 L 373 524 L 374 514 L 380 508 L 394 507 Z M 108 138 L 107 142 L 110 145 L 119 145 L 131 151 L 142 152 L 155 156 L 158 159 L 152 160 L 148 163 L 148 166 L 152 171 L 157 170 L 167 175 L 183 179 L 194 185 L 201 185 L 208 190 L 220 193 L 226 197 L 231 197 L 240 203 L 245 202 L 252 207 L 261 208 L 264 211 L 274 214 L 280 218 L 306 226 L 310 229 L 325 233 L 327 235 L 324 239 L 325 250 L 328 256 L 327 274 L 288 301 L 271 320 L 254 335 L 239 355 L 228 378 L 225 381 L 225 386 L 222 392 L 220 403 L 212 421 L 212 425 L 209 432 L 208 446 L 205 451 L 206 453 L 204 461 L 198 466 L 189 470 L 169 485 L 169 488 L 175 491 L 187 489 L 189 487 L 195 488 L 191 493 L 177 500 L 174 503 L 174 507 L 178 510 L 196 507 L 203 503 L 222 497 L 223 499 L 215 507 L 213 511 L 215 517 L 222 518 L 244 507 L 245 516 L 256 514 L 260 511 L 261 512 L 254 521 L 256 525 L 260 526 L 275 519 L 276 517 L 279 517 L 289 510 L 296 515 L 311 515 L 319 513 L 332 506 L 339 504 L 339 523 L 342 534 L 341 536 L 345 548 L 323 564 L 317 570 L 308 585 L 306 591 L 307 607 L 312 615 L 328 626 L 353 634 L 386 634 L 405 626 L 409 622 L 414 623 L 422 629 L 431 631 L 444 631 L 447 633 L 422 680 L 415 690 L 391 740 L 386 747 L 382 747 L 372 741 L 368 741 L 365 739 L 364 740 L 342 729 L 335 727 L 317 715 L 310 712 L 302 705 L 300 705 L 259 658 L 254 648 L 253 641 L 247 631 L 244 628 L 240 627 L 238 619 L 232 612 L 228 599 L 228 581 L 227 579 L 222 579 L 217 570 L 213 548 L 213 539 L 211 536 L 212 531 L 209 515 L 207 513 L 203 513 L 201 516 L 202 528 L 205 533 L 204 534 L 206 540 L 206 551 L 208 554 L 207 558 L 209 561 L 211 580 L 213 582 L 215 596 L 225 612 L 226 622 L 230 632 L 248 659 L 256 666 L 265 679 L 280 694 L 284 702 L 294 711 L 301 714 L 317 726 L 332 733 L 337 737 L 343 738 L 345 740 L 366 747 L 371 750 L 381 751 L 383 753 L 380 756 L 380 759 L 363 788 L 350 781 L 329 774 L 319 767 L 309 764 L 280 744 L 275 744 L 273 755 L 261 769 L 240 753 L 233 751 L 213 736 L 215 730 L 223 722 L 225 714 L 216 706 L 212 699 L 198 684 L 190 673 L 189 667 L 187 665 L 182 665 L 163 680 L 160 678 L 153 653 L 150 650 L 148 641 L 142 631 L 148 624 L 153 622 L 156 618 L 165 613 L 166 608 L 160 599 L 158 590 L 157 571 L 153 543 L 153 529 L 151 527 L 131 527 L 124 524 L 126 521 L 126 515 L 120 496 L 118 473 L 116 469 L 121 467 L 127 467 L 129 465 L 150 464 L 152 462 L 153 451 L 155 448 L 156 433 L 158 431 L 158 427 L 160 425 L 161 420 L 164 416 L 165 409 L 160 405 L 147 403 L 145 399 L 147 385 L 153 372 L 153 369 L 156 365 L 157 356 L 161 352 L 162 348 L 169 348 L 179 353 L 188 355 L 190 357 L 194 356 L 201 340 L 219 315 L 219 310 L 207 299 L 210 296 L 210 291 L 214 287 L 214 285 L 228 274 L 236 264 L 245 259 L 250 254 L 255 253 L 266 265 L 271 266 L 290 246 L 301 240 L 306 234 L 306 232 L 303 230 L 298 231 L 292 238 L 286 240 L 278 249 L 275 250 L 269 256 L 265 254 L 257 245 L 251 246 L 247 250 L 232 259 L 218 274 L 216 274 L 206 284 L 201 294 L 196 297 L 196 300 L 199 302 L 199 304 L 201 306 L 204 306 L 211 313 L 211 315 L 196 336 L 193 344 L 188 349 L 163 340 L 158 343 L 158 346 L 153 351 L 150 364 L 145 374 L 145 378 L 141 383 L 141 394 L 136 404 L 137 408 L 150 409 L 156 413 L 156 418 L 152 426 L 153 427 L 150 431 L 148 451 L 143 459 L 134 458 L 132 460 L 122 460 L 121 462 L 110 465 L 110 469 L 112 472 L 112 486 L 114 488 L 115 503 L 117 504 L 119 512 L 119 523 L 116 528 L 120 531 L 145 533 L 147 535 L 148 563 L 150 565 L 150 583 L 152 585 L 152 594 L 154 596 L 154 601 L 158 609 L 143 622 L 137 625 L 135 632 L 140 638 L 146 653 L 145 654 L 148 657 L 149 662 L 151 664 L 151 669 L 157 685 L 162 687 L 174 678 L 184 674 L 189 681 L 190 686 L 195 690 L 207 707 L 212 710 L 217 716 L 214 723 L 209 727 L 204 736 L 205 740 L 210 743 L 213 743 L 221 751 L 225 752 L 230 756 L 234 756 L 238 760 L 240 760 L 246 766 L 251 768 L 259 777 L 265 776 L 276 761 L 280 758 L 292 767 L 295 768 L 296 766 L 299 766 L 306 772 L 313 773 L 325 782 L 332 782 L 336 786 L 346 789 L 349 788 L 353 792 L 361 793 L 352 805 L 350 811 L 347 814 L 346 819 L 340 826 L 340 829 L 334 837 L 327 852 L 318 863 L 316 868 L 316 871 L 318 873 L 322 873 L 343 849 L 350 844 L 358 835 L 367 820 L 391 791 L 392 796 L 390 799 L 389 810 L 395 812 L 403 803 L 406 796 L 420 780 L 420 778 L 430 765 L 442 769 L 464 770 L 466 772 L 475 771 L 484 773 L 494 773 L 499 775 L 513 775 L 515 773 L 533 772 L 536 770 L 561 770 L 564 768 L 590 764 L 594 762 L 596 763 L 599 761 L 625 758 L 636 753 L 641 753 L 656 748 L 667 743 L 673 742 L 681 735 L 705 721 L 717 712 L 737 692 L 740 691 L 751 681 L 777 648 L 799 602 L 802 589 L 805 585 L 808 569 L 810 567 L 810 562 L 812 560 L 822 557 L 823 555 L 822 551 L 817 550 L 813 547 L 814 530 L 816 525 L 814 508 L 823 507 L 825 505 L 852 503 L 854 501 L 861 502 L 864 500 L 877 500 L 881 522 L 880 530 L 883 538 L 878 542 L 860 545 L 855 549 L 855 559 L 859 566 L 856 571 L 856 577 L 854 579 L 853 594 L 850 604 L 848 606 L 848 610 L 851 613 L 862 616 L 874 622 L 875 625 L 849 676 L 849 680 L 843 688 L 839 687 L 820 674 L 816 673 L 812 675 L 812 682 L 809 688 L 801 696 L 801 698 L 798 700 L 794 707 L 783 716 L 784 722 L 787 724 L 799 741 L 763 772 L 741 785 L 738 785 L 718 765 L 714 766 L 705 774 L 663 794 L 662 797 L 667 810 L 666 820 L 626 831 L 610 831 L 607 825 L 608 822 L 606 816 L 603 812 L 603 808 L 601 806 L 596 806 L 593 808 L 579 810 L 541 810 L 538 813 L 539 823 L 537 826 L 537 832 L 534 835 L 507 839 L 473 836 L 473 812 L 471 809 L 435 809 L 410 802 L 406 802 L 405 806 L 415 809 L 417 811 L 433 815 L 441 815 L 444 817 L 464 816 L 466 839 L 468 841 L 473 841 L 475 843 L 485 842 L 489 844 L 514 845 L 517 843 L 532 842 L 534 840 L 542 838 L 544 833 L 545 820 L 547 817 L 572 817 L 592 813 L 597 814 L 601 827 L 603 829 L 603 837 L 605 839 L 609 839 L 611 837 L 628 837 L 638 832 L 647 832 L 652 829 L 670 826 L 673 823 L 673 811 L 669 799 L 672 796 L 679 794 L 680 792 L 685 791 L 695 785 L 701 784 L 716 774 L 733 791 L 741 792 L 756 782 L 765 778 L 769 774 L 771 774 L 786 759 L 788 759 L 793 754 L 798 752 L 805 745 L 806 739 L 791 718 L 801 709 L 821 683 L 841 695 L 846 695 L 848 693 L 850 687 L 852 686 L 856 678 L 859 668 L 863 664 L 865 657 L 868 654 L 871 645 L 878 634 L 878 630 L 882 624 L 882 620 L 880 617 L 874 616 L 856 606 L 858 594 L 860 592 L 861 576 L 865 567 L 865 562 L 861 557 L 861 553 L 868 549 L 880 548 L 887 544 L 889 541 L 889 536 L 887 532 L 886 507 L 884 503 L 888 502 L 891 499 L 891 495 L 886 490 L 870 486 L 865 483 L 875 481 L 877 479 L 893 478 L 904 476 L 907 474 L 929 472 L 944 467 L 946 465 L 945 459 L 939 456 L 920 458 L 918 456 L 883 455 L 879 457 L 854 455 L 833 456 L 831 454 L 815 454 L 808 431 L 799 413 L 798 404 L 791 391 L 785 384 L 785 382 L 776 369 L 761 354 L 731 316 L 707 293 L 691 281 L 663 267 L 658 266 L 627 249 L 589 238 L 584 239 L 581 237 L 554 234 L 552 232 L 546 233 L 543 231 L 522 229 L 470 229 L 436 233 L 429 225 L 408 213 L 407 211 L 387 198 L 375 194 L 373 191 L 384 185 L 385 186 L 396 182 L 402 183 L 404 180 L 407 181 L 416 198 L 421 198 L 428 195 L 436 195 L 439 193 L 449 194 L 451 192 L 466 189 L 480 190 L 482 188 L 480 169 L 477 164 L 479 160 L 495 162 L 516 162 L 518 164 L 542 164 L 544 166 L 545 176 L 547 179 L 549 190 L 552 192 L 567 192 L 576 195 L 604 198 L 607 195 L 610 185 L 616 174 L 636 179 L 642 182 L 650 183 L 655 186 L 672 191 L 675 194 L 673 197 L 672 207 L 670 209 L 670 220 L 679 222 L 684 226 L 692 229 L 714 244 L 718 242 L 720 238 L 733 226 L 736 226 L 751 235 L 755 240 L 769 248 L 772 248 L 780 256 L 790 262 L 794 266 L 788 272 L 786 278 L 779 285 L 778 291 L 782 295 L 784 295 L 790 304 L 808 320 L 818 336 L 824 335 L 848 325 L 850 325 L 856 332 L 856 335 L 861 341 L 877 375 L 876 378 L 850 394 L 850 398 L 854 403 L 860 418 L 859 421 L 863 428 L 863 433 L 866 437 L 868 449 L 872 450 L 875 447 L 875 445 L 873 443 L 873 439 L 866 420 L 866 416 L 864 414 L 863 406 L 858 397 L 873 387 L 876 387 L 877 385 L 882 383 L 885 380 L 885 376 L 879 368 L 879 362 L 875 357 L 866 337 L 862 334 L 862 330 L 854 319 L 843 320 L 822 329 L 815 320 L 813 315 L 803 305 L 801 305 L 794 298 L 792 293 L 786 288 L 800 268 L 800 262 L 789 255 L 786 251 L 775 243 L 770 242 L 762 237 L 755 230 L 743 224 L 737 217 L 730 219 L 725 226 L 722 226 L 714 234 L 710 233 L 705 229 L 701 228 L 699 225 L 696 225 L 687 219 L 681 217 L 677 213 L 679 201 L 683 193 L 681 188 L 666 182 L 656 180 L 654 178 L 645 177 L 643 175 L 642 176 L 640 174 L 630 172 L 626 169 L 621 169 L 619 167 L 614 167 L 609 170 L 607 180 L 599 190 L 577 189 L 571 186 L 557 185 L 555 183 L 549 159 L 547 158 L 509 157 L 507 155 L 475 154 L 473 156 L 474 168 L 472 183 L 460 183 L 458 185 L 446 186 L 444 188 L 434 188 L 422 191 L 418 187 L 409 172 L 406 172 L 402 176 L 388 178 L 377 183 L 371 184 L 368 186 L 369 190 L 367 191 L 361 187 L 350 183 L 345 179 L 338 179 L 321 171 L 319 172 L 317 170 L 316 171 L 306 168 L 295 167 L 293 165 L 276 163 L 274 161 L 269 162 L 267 160 L 262 160 L 230 152 L 224 149 L 207 146 L 205 144 L 195 145 L 189 143 L 182 143 L 180 141 L 172 141 L 159 137 L 114 136 Z M 443 599 L 466 599 L 468 601 L 460 611 L 446 603 Z M 801 565 L 801 568 L 798 572 L 799 575 L 795 581 L 789 605 L 781 619 L 778 628 L 772 635 L 766 648 L 756 659 L 754 664 L 748 670 L 744 677 L 738 683 L 734 684 L 722 696 L 717 699 L 719 701 L 718 703 L 715 702 L 708 705 L 697 716 L 672 732 L 664 734 L 658 738 L 640 743 L 638 745 L 637 744 L 628 747 L 626 749 L 602 754 L 589 755 L 587 757 L 571 759 L 558 763 L 525 764 L 521 766 L 504 765 L 501 767 L 494 767 L 463 763 L 448 763 L 443 761 L 441 762 L 435 759 L 435 757 L 449 739 L 494 688 L 494 686 L 511 666 L 525 646 L 540 629 L 546 617 L 557 617 L 560 615 L 578 612 L 622 610 L 625 608 L 655 608 L 658 606 L 667 606 L 670 604 L 675 605 L 684 602 L 707 600 L 737 595 L 741 593 L 754 591 L 757 589 L 757 583 L 749 581 L 749 578 L 762 574 L 768 574 L 790 566 L 799 564 Z M 809 518 L 806 544 L 803 547 L 800 545 L 788 546 L 786 544 L 781 544 L 779 546 L 727 549 L 719 551 L 709 551 L 707 553 L 670 554 L 641 551 L 630 551 L 622 553 L 619 552 L 607 555 L 594 555 L 591 553 L 596 545 L 617 522 L 631 523 L 658 520 L 670 517 L 674 518 L 700 515 L 709 516 L 715 514 L 755 513 L 757 511 L 773 512 L 777 510 L 782 511 L 785 509 L 794 509 L 800 507 L 807 509 L 807 516 Z M 350 500 L 363 496 L 365 494 L 367 495 L 369 493 L 388 487 L 398 482 L 416 486 L 423 491 L 429 500 L 432 508 L 431 519 L 421 533 L 409 544 L 388 559 L 388 564 L 407 578 L 412 579 L 437 558 L 447 556 L 448 560 L 443 566 L 438 576 L 436 585 L 426 591 L 426 596 L 439 607 L 444 609 L 456 618 L 455 623 L 453 625 L 431 624 L 429 622 L 426 623 L 417 618 L 415 614 L 409 613 L 403 619 L 392 625 L 380 628 L 354 627 L 351 625 L 335 621 L 318 611 L 315 607 L 313 599 L 313 592 L 315 590 L 315 586 L 321 577 L 331 567 L 344 557 L 351 554 L 353 551 L 353 547 L 349 541 L 348 532 L 346 529 L 346 510 L 348 509 Z M 933 464 L 925 465 L 923 467 L 905 469 L 896 472 L 874 474 L 870 476 L 841 478 L 838 481 L 840 485 L 855 487 L 857 489 L 859 488 L 869 492 L 866 495 L 858 495 L 856 497 L 851 496 L 829 500 L 803 501 L 800 503 L 778 505 L 722 507 L 696 509 L 693 511 L 664 511 L 661 514 L 646 514 L 643 516 L 633 517 L 616 515 L 612 516 L 607 524 L 591 541 L 585 550 L 579 553 L 579 558 L 581 560 L 592 559 L 595 561 L 610 561 L 612 559 L 644 558 L 684 561 L 693 559 L 723 558 L 726 556 L 732 557 L 735 555 L 756 554 L 760 552 L 793 551 L 809 553 L 810 555 L 799 559 L 797 558 L 795 560 L 793 559 L 791 561 L 777 564 L 767 568 L 719 578 L 718 582 L 720 585 L 734 585 L 740 587 L 736 589 L 733 588 L 727 591 L 694 594 L 692 596 L 663 599 L 661 601 L 635 601 L 618 604 L 581 605 L 579 607 L 564 608 L 559 610 L 540 610 L 537 614 L 537 617 L 533 621 L 522 640 L 499 667 L 487 685 L 435 746 L 399 797 L 397 795 L 401 777 L 398 775 L 385 788 L 352 832 L 342 842 L 339 842 L 344 833 L 346 832 L 346 828 L 349 822 L 355 815 L 361 802 L 372 787 L 373 783 L 393 749 L 395 743 L 402 733 L 431 675 L 434 672 L 435 668 L 451 640 L 462 624 L 462 622 L 477 600 L 477 596 L 474 592 L 453 593 L 445 591 L 443 589 L 442 584 L 447 573 L 458 557 L 488 559 L 497 558 L 513 536 L 526 522 L 537 506 L 560 486 L 583 474 L 605 468 L 668 463 L 675 464 L 702 461 L 770 462 L 777 460 L 812 460 L 831 462 L 920 462 Z M 325 283 L 327 285 L 326 299 L 316 339 L 309 357 L 297 379 L 283 398 L 275 406 L 242 429 L 225 447 L 217 453 L 213 454 L 212 447 L 214 444 L 214 440 L 230 397 L 229 393 L 231 385 L 239 369 L 255 346 L 276 326 L 280 320 L 300 301 L 317 290 Z M 367 255 L 390 269 L 400 279 L 405 282 L 414 292 L 426 314 L 432 336 L 431 362 L 429 364 L 430 368 L 427 377 L 427 384 L 423 395 L 416 405 L 399 423 L 386 433 L 361 445 L 351 446 L 348 448 L 318 454 L 316 452 L 337 420 L 345 395 L 348 391 L 350 382 L 352 380 L 354 370 L 356 367 L 355 365 L 358 360 L 363 329 L 367 321 L 369 310 L 369 286 L 366 262 Z M 397 562 L 428 535 L 434 528 L 438 517 L 438 505 L 436 498 L 427 485 L 417 480 L 415 477 L 429 471 L 448 459 L 449 457 L 451 457 L 467 441 L 495 394 L 499 377 L 499 339 L 497 331 L 498 328 L 496 323 L 497 319 L 495 316 L 493 306 L 489 301 L 484 287 L 475 271 L 444 240 L 447 238 L 473 235 L 512 235 L 515 237 L 536 237 L 540 239 L 545 238 L 548 240 L 561 241 L 565 243 L 576 243 L 578 245 L 589 246 L 591 248 L 596 248 L 619 256 L 623 256 L 651 272 L 664 276 L 682 285 L 702 299 L 729 325 L 751 355 L 761 364 L 772 377 L 775 384 L 783 394 L 784 398 L 789 405 L 795 419 L 796 426 L 799 430 L 800 436 L 804 444 L 806 453 L 796 455 L 697 454 L 695 456 L 672 456 L 645 458 L 638 460 L 627 459 L 620 461 L 613 460 L 588 465 L 586 467 L 580 468 L 561 477 L 550 486 L 545 488 L 530 504 L 526 511 L 513 525 L 492 552 L 471 552 L 468 550 L 458 550 L 450 555 L 445 550 L 439 550 L 429 555 L 411 570 Z M 125 143 L 139 142 L 149 144 L 161 144 L 180 147 L 183 149 L 187 148 L 190 150 L 207 151 L 228 158 L 252 163 L 255 165 L 257 164 L 259 166 L 268 166 L 271 168 L 277 168 L 279 170 L 294 171 L 296 173 L 322 178 L 329 182 L 342 185 L 354 192 L 380 203 L 430 235 L 441 248 L 463 268 L 470 277 L 479 295 L 483 307 L 489 317 L 488 320 L 490 322 L 492 337 L 490 344 L 493 357 L 493 370 L 491 372 L 491 380 L 483 401 L 458 440 L 444 453 L 423 466 L 405 473 L 401 473 L 394 476 L 393 475 L 391 477 L 375 482 L 354 492 L 346 492 L 338 497 L 335 497 L 329 501 L 310 508 L 297 508 L 296 504 L 293 501 L 290 501 L 275 512 L 270 514 L 268 511 L 278 499 L 277 494 L 271 493 L 256 505 L 254 504 L 256 498 L 254 496 L 249 496 L 248 498 L 225 510 L 223 508 L 238 492 L 239 488 L 236 485 L 233 485 L 226 489 L 222 489 L 213 494 L 195 500 L 195 497 L 212 485 L 212 481 L 209 478 L 192 481 L 189 483 L 184 482 L 197 472 L 201 471 L 222 457 L 224 457 L 248 433 L 272 418 L 290 401 L 308 376 L 319 353 L 320 346 L 325 333 L 328 313 L 330 310 L 331 296 L 333 294 L 334 286 L 334 240 L 336 238 L 348 242 L 358 248 L 360 275 L 362 281 L 361 313 L 357 329 L 352 338 L 349 358 L 343 372 L 342 379 L 339 384 L 338 394 L 333 406 L 333 410 L 330 418 L 308 451 L 303 455 L 303 459 L 306 462 L 332 459 L 334 457 L 348 455 L 351 453 L 370 449 L 371 447 L 383 443 L 392 438 L 406 427 L 418 415 L 428 401 L 433 387 L 434 375 L 436 373 L 437 361 L 439 358 L 438 323 L 430 304 L 412 277 L 391 260 L 366 244 L 349 235 L 338 232 L 331 228 L 289 212 L 283 211 L 273 206 L 267 205 L 253 198 L 241 195 L 239 193 L 230 191 L 225 188 L 212 185 L 202 180 L 193 178 L 187 174 L 166 168 L 167 166 L 174 167 L 176 165 L 179 168 L 206 168 L 208 167 L 209 163 L 204 159 L 177 158 L 160 152 L 158 150 L 134 146 Z"/>
</svg>