<svg width="32" height="32" viewBox="0 0 32 32" fill="none" xmlns="http://www.w3.org/2000/svg">
<g clip-path="url(#clip0_118_75)">
<path fill-rule="evenodd" clip-rule="evenodd" d="M14.56 3.824C14.7067 3.57222 14.9169 3.3633 15.1696 3.2181C15.4222 3.0729 15.7086 2.99649 16 2.99649C16.2914 2.99649 16.5777 3.0729 16.8304 3.2181C17.0831 3.3633 17.2933 3.57222 17.44 3.824L21.1666 10.2213L28.404 11.7893C28.6887 11.8512 28.9522 11.9866 29.1682 12.182C29.3842 12.3775 29.5453 12.6262 29.6353 12.9032C29.7252 13.1803 29.741 13.4761 29.681 13.7612C29.621 14.0463 29.4873 14.3107 29.2933 14.528L24.36 20.0493L25.1066 27.416C25.1361 27.7061 25.0889 27.9988 24.9699 28.265C24.8508 28.5311 24.664 28.7614 24.4282 28.9327C24.1923 29.1041 23.9156 29.2106 23.6256 29.2416C23.3357 29.2726 23.0428 29.227 22.776 29.1093L16 26.1227L9.22398 29.1093C8.95721 29.227 8.66423 29.2726 8.37432 29.2416C8.0844 29.2106 7.80769 29.1041 7.57181 28.9327C7.33593 28.7614 7.14913 28.5311 7.03007 28.265C6.91101 27.9988 6.86386 27.7061 6.89331 27.416L7.63998 20.0493L2.70665 14.5293C2.51228 14.312 2.37832 14.0476 2.31813 13.7623C2.25794 13.477 2.27363 13.181 2.36364 12.9037C2.45364 12.6264 2.61481 12.3775 2.83105 12.182C3.0473 11.9865 3.31105 11.8511 3.59598 11.7893L10.8333 10.2213L14.56 3.824ZM16 6.64934L12.916 11.9453C12.7994 12.1452 12.6424 12.3187 12.4551 12.4546C12.2678 12.5905 12.0542 12.6858 11.828 12.7347L5.83865 14.032L9.92131 18.6013C10.2333 18.9507 10.384 19.4147 10.3373 19.88L9.71998 25.9773L15.328 23.5053C15.5397 23.412 15.7686 23.3639 16 23.3639C16.2314 23.3639 16.4602 23.412 16.672 23.5053L22.28 25.9773L21.6626 19.88C21.6392 19.6498 21.664 19.4172 21.7354 19.197C21.8067 18.9769 21.9232 18.774 22.0773 18.6013L26.1613 14.032L20.172 12.7347C19.9458 12.6858 19.7322 12.5905 19.5449 12.4546C19.3576 12.3187 19.2006 12.1452 19.084 11.9453L16 6.64934Z" fill="#FFD233"/>
</g>
<defs>
<clipPath id="clip0_118_75">
<rect width="32" height="32" fill="white"/>
</clipPath>
</defs>
</svg>
