<svg width="32" height="32" viewBox="0 0 32 32" fill="none" xmlns="http://www.w3.org/2000/svg">
<g clip-path="url(#clip0_118_75)">
<path d="M20.9506 10.3472L21.0061 10.4423L21.1137 10.4657L28.3509 12.0336C28.5929 12.0862 28.8168 12.2013 29.0005 12.3674C29.1841 12.5336 29.321 12.7449 29.3975 12.9804C29.474 13.216 29.4874 13.4674 29.4364 13.7097C29.3854 13.9521 29.2717 14.1768 29.1068 14.3615L24.1736 19.8828L24.1001 19.9649L24.1113 20.0745L24.8579 27.4412L24.8579 27.4413C24.883 27.6878 24.8429 27.9366 24.7417 28.1629C24.6405 28.3891 24.4817 28.5848 24.2812 28.7305C24.0807 28.8762 23.8455 28.9667 23.5991 28.993C23.3526 29.0194 23.1036 28.9806 22.8769 28.8806L22.8768 28.8806L16.1008 25.8939L16 25.8495L15.8991 25.8939L9.12315 28.8806L9.1231 28.8806C8.89634 28.9806 8.64732 29.0194 8.40089 28.993C8.15446 28.9667 7.91926 28.8762 7.71876 28.7305C7.51826 28.5848 7.35948 28.3891 7.25828 28.1629C7.15708 27.9366 7.117 27.6878 7.14204 27.4413L7.14204 27.4412L7.88871 20.0745L7.89982 19.9649L7.82639 19.8827L2.89305 14.3627L2.89298 14.3627C2.72778 14.178 2.61391 13.9532 2.56275 13.7107C2.51159 13.4682 2.52492 13.2166 2.60143 12.9809C2.67793 12.7452 2.81492 12.5336 2.99873 12.3674C3.18254 12.2012 3.40673 12.0861 3.64892 12.0337L10.8862 10.4657L10.9939 10.4423L11.0493 10.3472L14.776 3.94988C14.776 3.94987 14.776 3.94985 14.776 3.94984C14.9007 3.73584 15.0794 3.55827 15.2941 3.43486C15.5089 3.31144 15.7523 3.24649 16 3.24649C16.2477 3.24649 16.4911 3.31144 16.7058 3.43486C16.9206 3.55827 17.0992 3.73584 17.224 3.94984C17.224 3.94985 17.224 3.94987 17.224 3.94988L20.9506 10.3472ZM16.216 6.52353L16 6.15254L15.7839 6.52353L12.7 11.8194C12.6009 11.9893 12.4675 12.1367 12.3083 12.2522C12.1491 12.3677 11.9675 12.4488 11.7752 12.4903L11.7751 12.4903L5.78572 13.7877L5.36626 13.8785L5.65222 14.1986L9.73485 18.7679C10.0001 19.0649 10.1282 19.4593 10.0886 19.855C10.0886 19.855 10.0886 19.855 10.0886 19.8551L9.47125 25.9522L9.42801 26.3792L9.82082 26.2061L15.4288 23.7341C15.6088 23.6548 15.8033 23.6139 16 23.6139C16.1967 23.6139 16.3912 23.6548 16.5712 23.7341L22.1791 26.2061L22.5719 26.3792L22.5287 25.9522L21.9114 19.8548L21.9114 19.8547C21.8914 19.659 21.9125 19.4613 21.9732 19.2741C22.0338 19.087 22.1328 18.9146 22.2638 18.7678L26.3477 14.1986L26.6338 13.8785L26.2142 13.7877L20.2249 12.4903L20.2247 12.4903C20.0324 12.4488 19.8509 12.3677 19.6917 12.2522C19.5325 12.1367 19.399 11.9893 19.2999 11.8194L16.216 6.52353Z" fill="#FFD233" stroke="black" stroke-width="0.5"/>
</g>
<defs>
<clipPath id="clip0_118_75">
<rect width="32" height="32" fill="white"/>
</clipPath>
</defs>
</svg>
