<svg width="22" height="28" viewBox="0 0 22 28" fill="none" xmlns="http://www.w3.org/2000/svg">
<path d="M3.23281 8.7875L10.3297 1.16562C10.4157 1.07455 10.5192 1.00183 10.6341 0.951837C10.749 0.901847 10.8727 0.875624 10.998 0.874748C11.1233 0.873872 11.2474 0.898361 11.3629 0.94674C11.4785 0.995118 11.583 1.06639 11.6703 1.15625L18.7672 8.77812C19.2922 9.33687 18.8797 10.2434 18.1016 10.2434H14.6891C14.3609 10.2434 14.0891 10.5097 14.0891 10.8294V15.6997C14.0891 16.3044 13.5922 16.79 12.9734 16.79H9.01719C8.40781 16.79 7.90156 16.3044 7.91094 15.7091V10.8387C7.90798 10.6818 7.84338 10.5324 7.73109 10.4227C7.61881 10.3131 7.46788 10.252 7.31094 10.2528H3.89844C3.12031 10.2528 2.70781 9.35562 3.23281 8.7875ZM7.6625 18.5169H1.625C1.10937 18.5169 0.6875 18.9387 0.6875 19.4544C0.6875 19.97 1.10937 20.3919 1.625 20.3919H3.70625V26.1762C3.70625 26.6919 4.12813 27.1137 4.64375 27.1137C5.15938 27.1137 5.58125 26.6919 5.58125 26.1762V20.3919H7.6625C8.17812 20.3919 8.6 19.97 8.6 19.4544C8.6 18.9294 8.17812 18.5169 7.6625 18.5169ZM16.4656 18.5262H19.0625C20.4781 18.5262 21.6313 19.6794 21.6313 21.095C21.6313 22.5106 20.4781 23.6637 19.0625 23.6637H17.4031V26.1856C17.4031 26.7012 16.9812 27.1231 16.4656 27.1231C15.95 27.1231 15.5281 26.7012 15.5281 26.1856V19.4637C15.5281 18.9481 15.95 18.5262 16.4656 18.5262ZM17.4031 21.7887H19.0625C19.4469 21.7887 19.7563 21.4794 19.7563 21.095C19.7563 20.7106 19.4469 20.4012 19.0625 20.4012H17.4031V21.7887ZM8.6 24.1794C8.6 25.8012 9.92188 27.1231 11.5531 27.1231C13.175 27.1231 14.5062 25.8012 14.5062 24.1794V21.4794C14.5062 19.8575 13.1844 18.5356 11.5531 18.5356C9.92188 18.5356 8.6 19.8575 8.6 21.4794V24.1794ZM10.475 21.4794C10.475 21.1934 10.5886 20.9192 10.7908 20.717C10.993 20.5148 11.2672 20.4012 11.5531 20.4012C11.8391 20.4012 12.1133 20.5148 12.3155 20.717C12.5177 20.9192 12.6312 21.1934 12.6312 21.4794V24.1794C12.6312 24.7794 12.1438 25.2575 11.5531 25.2575C10.9625 25.2575 10.475 24.77 10.475 24.1794V21.4794Z" fill="black"/>
</svg>
