<svg width="23" height="23" viewBox="0 0 23 23" fill="none" xmlns="http://www.w3.org/2000/svg">
<path d="M2.09123 8.88628C2.09123 7.08403 2.80721 5.3556 4.08166 4.08121C5.35612 2.80683 7.08465 2.09089 8.887 2.09089C10.6893 2.09089 12.4179 2.80683 13.6923 4.08121C14.9668 5.3556 15.6828 7.08403 15.6828 8.88628C15.6828 10.6885 14.9668 12.417 13.6923 13.6913C12.4179 14.9657 10.6893 15.6817 8.887 15.6817C7.08465 15.6817 5.35612 14.9657 4.08166 13.6913C2.80721 12.417 2.09123 10.6885 2.09123 8.88628ZM8.887 2.00398e-08C7.46991 0.00012074 6.07341 0.339105 4.81398 0.988671C3.55456 1.63824 2.46875 2.57955 1.64713 3.73407C0.825519 4.88859 0.291926 6.22285 0.0908744 7.62552C-0.110177 9.02819 0.0271416 10.4586 0.491375 11.7974C0.955609 13.1362 1.7333 14.3446 2.75955 15.3218C3.78581 16.2989 5.03087 17.0165 6.39087 17.4146C7.75087 17.8127 9.18637 17.8799 10.5776 17.6104C11.9688 17.341 13.2754 16.7428 14.3884 15.8657L21.2156 22.6935C21.4116 22.8896 21.6776 22.9999 21.9549 23C22.2322 23.0001 22.4983 22.89 22.6944 22.694C22.8906 22.498 23.0009 22.232 23.001 21.9547C23.0011 21.6774 22.891 21.4114 22.695 21.2152L15.8668 14.3874C16.8997 13.0771 17.5429 11.5024 17.7226 9.84362C17.9024 8.18484 17.6115 6.50896 16.8832 5.00778C16.155 3.5066 15.0188 2.24076 13.6046 1.35514C12.1905 0.469516 10.5556 -0.000112012 8.887 2.00398e-08Z" fill="black"/>
</svg>
