<svg width="18" height="18" viewBox="0 0 18 18" fill="none" xmlns="http://www.w3.org/2000/svg">
<path d="M1.49888 6.99273C1.49888 5.53556 2.07776 4.13806 3.10817 3.10768C4.13859 2.0773 5.53613 1.49844 6.99335 1.49844C8.45057 1.49844 9.84811 2.0773 10.8785 3.10768C11.9089 4.13806 12.4878 5.53556 12.4878 6.99273C12.4878 8.44991 11.9089 9.8474 10.8785 10.8778C9.84811 11.9082 8.45057 12.487 6.99335 12.487C5.53613 12.487 4.13859 11.9082 3.10817 10.8778C2.07776 9.8474 1.49888 8.44991 1.49888 6.99273ZM6.99335 1.61427e-08C5.87514 9.43389e-05 4.77327 0.268333 3.78015 0.782216C2.78702 1.2961 1.93162 2.04064 1.28569 2.95338C0.63976 3.86613 0.222138 4.92046 0.0678574 6.02793C-0.0864234 7.13541 0.0271357 8.26373 0.399009 9.31825C0.770882 10.3728 1.39022 11.3227 2.20508 12.0885C3.01994 12.8542 4.00656 13.4134 5.08216 13.7191C6.15777 14.0248 7.291 14.0681 8.3868 13.8454C9.4826 13.6226 10.509 13.1404 11.3799 12.4391L16.7036 17.7615C16.7722 17.8352 16.8549 17.8942 16.9468 17.9351C17.0387 17.9761 17.1379 17.9981 17.2385 17.9999C17.3391 18.0017 17.439 17.9832 17.5323 17.9455C17.6256 17.9078 17.7104 17.8517 17.7815 17.7806C17.8527 17.7094 17.9088 17.6247 17.9464 17.5314C17.9841 17.4381 18.0026 17.3382 18.0009 17.2376C17.9991 17.137 17.9771 17.0378 17.9361 16.9458C17.8952 16.8539 17.8361 16.7712 17.7625 16.7026L12.4399 11.3792C13.2674 10.3518 13.7875 9.11127 13.9399 7.8009C14.0924 6.49053 13.8711 5.16376 13.3015 3.97382C12.732 2.78388 11.8374 1.77932 10.7212 1.07616C9.60497 0.372992 8.3126 -8.96049e-05 6.99335 1.61427e-08Z" fill="black"/>
</svg>
